<?xml version="1.0" standalone="no"?>
<!DOCTYPE svg PUBLIC "-//W3C//DTD SVG 20010904//EN"
 "http://www.w3.org/TR/2001/REC-SVG-20010904/DTD/svg10.dtd">
<svg version="1.0" xmlns="http://www.w3.org/2000/svg"
 width="1120.000000pt" height="1120.000000pt" viewBox="0 0 1120.000000 1120.000000"
 preserveAspectRatio="xMidYMid meet">
<metadata>
Created by potrace 1.14, written by Peter Selinger 2001-2017
</metadata>
<g transform="translate(0.000000,1120.000000) scale(0.100000,-0.100000)"
fill="#000000" stroke="none">
<path d="M2176 10063 c-1 -1 -489 -4 -1085 -7 -595 -2 -1084 -6 -1086 -7 -1
-2 14 -30 35 -61 21 -31 36 -59 32 -62 -3 -3 -1 -6 5 -6 5 0 18 -16 29 -35 10
-19 23 -35 28 -35 5 0 6 -3 3 -7 -4 -3 4 -21 18 -39 14 -18 25 -35 25 -38 0
-4 16 -29 35 -56 19 -27 35 -52 35 -55 0 -4 18 -33 40 -65 22 -32 40 -63 40
-68 0 -5 7 -16 16 -23 9 -7 19 -21 23 -29 3 -9 47 -80 96 -158 50 -79 99 -158
110 -176 11 -19 157 -252 325 -519 168 -267 309 -495 315 -506 5 -12 13 -21
17 -21 5 0 8 -6 8 -13 0 -7 9 -23 20 -35 11 -12 20 -25 20 -29 0 -5 7 -16 15
-26 8 -9 15 -20 15 -22 0 -3 23 -39 50 -81 28 -41 50 -78 50 -80 0 -3 14 -25
30 -49 16 -24 30 -48 30 -53 0 -6 4 -12 8 -14 5 -1 30 -39 56 -83 49 -81 97
-156 106 -165 3 -3 11 -16 18 -30 13 -27 34 -62 42 -70 3 -3 10 -14 17 -25 60
-101 99 -161 105 -163 5 -2 8 -10 8 -18 0 -8 5 -14 10 -14 6 0 10 -4 10 -9 0
-5 36 -66 80 -136 44 -70 80 -131 80 -136 0 -5 5 -9 10 -9 6 0 10 -6 10 -13 0
-8 9 -22 20 -32 11 -10 18 -20 16 -22 -2 -3 16 -33 40 -69 24 -35 44 -66 44
-68 0 -3 41 -68 90 -146 50 -78 90 -146 90 -151 0 -5 5 -9 10 -9 6 0 10 -6 10
-13 0 -7 8 -22 18 -33 9 -11 26 -35 36 -54 11 -19 37 -61 58 -93 21 -32 38
-63 38 -68 0 -5 5 -9 10 -9 6 0 10 -4 10 -10 0 -5 25 -48 55 -95 30 -46 55
-89 55 -95 0 -5 5 -10 10 -10 6 0 10 -7 10 -15 0 -8 5 -15 10 -15 6 0 10 -4
10 -9 0 -5 43 -76 95 -157 52 -82 98 -156 102 -164 4 -8 28 -48 55 -88 26 -41
48 -76 48 -78 0 -3 21 -37 48 -77 26 -40 54 -84 61 -99 8 -16 18 -28 23 -28 4
0 8 -5 8 -11 0 -9 64 -113 109 -179 10 -14 26 -41 36 -60 10 -18 24 -40 31
-48 8 -7 14 -20 14 -28 0 -8 4 -14 9 -14 5 0 16 -15 25 -32 19 -38 39 -71 46
-78 12 -11 90 -142 90 -151 0 -5 4 -9 8 -9 5 0 16 -15 25 -33 10 -17 26 -45
37 -62 11 -16 27 -43 36 -60 9 -16 20 -32 23 -35 3 -3 11 -14 18 -25 6 -11 69
-112 140 -224 70 -112 135 -215 143 -230 8 -14 36 -57 61 -96 25 -38 54 -86
65 -105 10 -19 21 -37 24 -40 3 -3 62 -95 130 -205 122 -196 162 -260 177
-281 11 -15 34 -55 50 -85 7 -15 20 -32 28 -39 8 -7 15 -19 15 -26 0 -8 5 -14
10 -14 6 0 10 -5 10 -11 0 -6 18 -38 40 -70 22 -32 40 -63 40 -67 0 -5 9 -17
20 -27 11 -10 17 -21 15 -26 -3 -4 0 -11 7 -16 7 -4 21 -24 31 -43 16 -32 135
-221 154 -246 4 -5 14 -21 22 -35 48 -81 82 -134 96 -149 8 -9 15 -20 15 -25
0 -4 15 -31 34 -59 59 -90 89 -141 87 -145 -2 -2 1 -7 6 -10 10 -6 133 -199
133 -207 0 -7 44 -68 53 -75 5 -3 9 -10 9 -15 1 -9 14 -30 95 -157 24 -37 43
-71 43 -76 0 -5 4 -11 8 -13 4 -2 37 -50 72 -108 35 -58 68 -106 72 -108 4 -2
8 -7 8 -12 0 -10 61 -110 67 -110 6 0 33 27 33 33 0 3 70 116 155 252 85 135
155 250 155 254 0 4 9 16 20 26 11 10 20 24 20 32 0 7 5 13 10 13 6 0 10 5 10
11 0 6 14 30 30 54 17 24 30 48 30 54 0 6 4 11 9 11 5 0 13 10 17 23 4 12 10
24 13 27 9 7 61 88 61 95 0 3 5 11 10 18 12 14 21 29 201 317 74 118 137 217
141 218 5 2 8 8 8 14 0 5 14 29 30 53 16 24 30 48 30 54 0 6 3 11 8 11 4 0 22
26 40 58 18 31 59 99 92 150 33 51 60 97 60 103 0 5 4 9 9 9 5 0 14 14 21 30
7 17 16 30 21 30 5 0 9 4 9 10 0 12 421 682 435 692 5 4 7 8 2 8 -8 0 84 143
96 148 4 2 5 8 1 13 -3 5 0 9 5 9 6 0 11 4 11 9 0 5 32 58 70 118 39 59 73
115 77 123 3 8 24 41 45 72 21 31 38 61 38 67 0 5 4 11 8 13 7 3 104 154 127
199 5 10 13 19 17 19 5 0 8 4 8 10 0 9 34 66 106 177 19 28 34 56 34 62 0 6 4
11 9 11 5 0 14 13 21 30 7 16 16 30 21 30 5 0 9 4 9 9 0 4 26 49 58 100 74
117 95 152 161 258 30 49 75 120 100 158 25 39 45 73 43 78 -1 4 2 7 8 7 5 0
10 5 10 10 0 6 5 16 10 23 6 7 33 48 60 92 28 44 54 87 60 95 50 76 170 272
170 279 0 5 4 11 8 13 4 2 41 57 82 123 41 66 77 122 80 125 4 3 10 12 13 20
8 18 9 19 207 334 223 355 221 352 285 456 33 52 65 101 72 108 7 7 13 18 13
23 0 5 5 15 11 22 10 11 126 196 250 397 29 47 73 117 98 155 25 39 45 73 43
78 -1 4 2 7 8 7 5 0 10 7 10 15 0 8 4 15 9 15 5 0 11 8 15 18 6 17 206 337
226 359 5 7 10 17 10 22 0 5 6 16 13 23 6 8 17 23 24 33 6 11 47 76 90 144 43
68 87 139 98 157 65 107 199 320 204 324 3 3 15 21 25 40 11 19 34 58 51 85
18 28 80 127 139 220 58 94 110 177 116 185 45 66 152 238 156 253 4 9 9 17
13 17 4 0 19 25 35 55 15 30 31 55 36 55 4 0 11 11 14 25 4 14 11 25 16 25 6
0 10 5 10 11 0 6 14 30 30 54 16 24 30 45 30 47 0 2 -352 4 -783 5 -430 1
-1375 5 -2100 8 -1262 6 -1318 5 -1324 -12 -4 -10 -9 -20 -12 -23 -6 -5 -34
-58 -129 -245 -19 -38 -39 -71 -44 -73 -4 -2 -8 -9 -8 -15 0 -7 -6 -23 -13
-37 -8 -14 -46 -88 -87 -165 -40 -77 -78 -143 -84 -147 -6 -4 -7 -8 -3 -8 4 0
-7 -28 -26 -62 -19 -35 -65 -121 -102 -193 -37 -71 -84 -161 -105 -200 -21
-38 -63 -119 -95 -180 -31 -60 -62 -116 -67 -122 -6 -7 -7 -13 -2 -13 5 0 5
-4 -1 -8 -5 -4 -30 -45 -54 -92 -24 -47 -67 -130 -96 -185 -29 -55 -74 -140
-100 -190 -26 -49 -52 -96 -57 -102 -6 -7 -7 -13 -3 -13 5 0 2 -8 -6 -17 -8
-10 -35 -58 -59 -108 -25 -49 -47 -92 -50 -95 -3 -3 -26 -44 -50 -93 -25 -48
-56 -109 -70 -135 -14 -26 -36 -66 -48 -90 l-23 -43 -43 83 c-24 46 -64 121
-88 168 -25 47 -76 144 -113 215 -37 72 -85 163 -107 203 -21 39 -35 72 -31
72 5 0 3 4 -3 8 -7 4 -40 61 -74 127 -34 66 -92 176 -128 245 -83 157 -123
233 -192 368 -30 59 -57 109 -60 112 -3 3 -34 61 -69 130 -35 69 -69 128 -75
132 -6 4 -8 8 -4 8 4 0 -15 42 -42 93 -27 50 -71 135 -97 187 -27 52 -50 97
-53 100 -3 3 -25 43 -49 90 -80 154 -88 169 -102 186 -8 9 -12 19 -10 21 2 2
-11 31 -29 64 l-31 59 -1011 -2 c-555 -2 -1011 -4 -1012 -5z"/>
<path d="M10820 8913 c-63 -102 -121 -191 -127 -198 -7 -8 -13 -17 -13 -21 0
-4 -11 -24 -24 -43 -13 -20 -39 -61 -58 -91 -19 -30 -67 -106 -106 -167 -40
-62 -72 -117 -72 -123 0 -5 -4 -10 -10 -10 -5 0 -10 -5 -10 -10 0 -6 -15 -32
-34 -59 -19 -27 -32 -52 -29 -55 4 -3 2 -6 -3 -6 -5 0 -20 -20 -34 -45 -14
-25 -28 -45 -32 -45 -5 0 -8 -4 -8 -9 0 -13 -152 -255 -162 -259 -4 -2 -8 -8
-8 -13 0 -9 -87 -150 -99 -159 -3 -3 -7 -10 -8 -17 -1 -6 -15 -31 -31 -55 -43
-64 -86 -132 -92 -144 -13 -27 -146 -230 -155 -236 -5 -4 -7 -8 -2 -8 4 0 -9
-22 -28 -50 -19 -27 -35 -54 -35 -60 0 -6 -7 -13 -15 -16 -8 -4 -15 -11 -15
-18 0 -6 -16 -36 -36 -66 -20 -30 -48 -74 -62 -98 -34 -56 -26 -43 -227 -361
-93 -149 -176 -281 -183 -295 -7 -15 -18 -26 -24 -26 -6 0 -9 -3 -5 -6 3 -4
-12 -33 -33 -65 -22 -32 -40 -63 -40 -68 0 -6 -4 -11 -9 -11 -5 0 -11 -8 -15
-17 -3 -10 -26 -49 -50 -86 -44 -68 -44 -69 -28 -100 10 -18 20 -33 25 -35 4
-2 7 -9 7 -16 0 -7 11 -30 25 -50 13 -20 22 -36 19 -36 -3 0 4 -13 15 -29 12
-16 21 -34 21 -39 0 -6 3 -12 8 -14 4 -1 16 -21 28 -43 34 -66 106 -199 114
-210 4 -5 29 -50 55 -100 81 -152 197 -359 207 -372 6 -7 8 -13 5 -13 -4 0 5
-16 18 -36 14 -20 25 -43 25 -50 0 -8 4 -14 8 -14 4 0 13 -12 20 -27 6 -16 22
-46 35 -68 12 -22 45 -80 72 -130 71 -132 95 -177 115 -210 9 -16 34 -61 55
-100 58 -108 59 -109 74 -127 8 -10 11 -18 7 -18 -4 0 1 -12 12 -27 11 -16 36
-59 56 -98 20 -38 41 -77 46 -85 6 -8 33 -58 61 -110 76 -141 107 -197 154
-280 23 -41 60 -109 82 -150 22 -41 49 -91 60 -110 11 -19 35 -62 53 -95 18
-33 44 -79 57 -102 13 -24 20 -43 16 -43 -4 0 -3 -4 3 -8 7 -4 25 -32 42 -62
16 -30 41 -75 54 -100 57 -102 87 -157 104 -190 11 -19 21 -37 24 -40 3 -3 13
-21 22 -40 25 -51 86 -163 95 -175 5 -6 15 -24 24 -40 9 -17 38 -70 64 -118
26 -48 49 -86 51 -84 4 4 6 6989 1 6992 -1 2 -54 -81 -117 -182z"/>
<path d="M265 5591 c0 -1925 3 -3497 7 -3494 5 2 8 11 8 19 0 8 4 14 8 14 5 0
16 17 25 38 21 49 70 136 79 140 5 2 8 8 8 13 0 5 31 66 70 135 38 70 70 129
70 131 0 2 11 21 25 43 14 22 22 40 18 40 -5 0 -3 4 3 8 6 4 24 32 40 62 16
30 32 57 37 58 4 2 7 8 7 13 0 6 29 64 66 129 36 66 64 122 64 126 -1 4 2 10
7 13 5 3 42 67 83 141 40 74 81 149 90 165 9 17 32 57 50 90 33 61 65 118 115
210 15 28 41 75 58 105 16 30 34 61 40 68 5 6 6 12 1 12 -5 0 -4 4 2 8 10 7
84 137 129 227 11 22 26 46 33 53 6 7 12 18 12 23 0 5 11 27 24 48 14 21 22
42 19 45 -4 3 -2 6 4 6 5 0 15 12 22 28 7 15 37 71 67 124 30 54 55 101 55
105 0 5 6 15 12 23 14 18 29 44 75 130 19 36 48 86 63 113 16 26 29 51 29 55
0 4 11 24 25 45 14 20 23 37 20 37 -4 0 2 12 12 28 31 46 43 66 50 82 3 8 25
49 48 90 23 41 55 100 72 130 17 30 39 71 50 90 11 19 39 71 63 115 23 44 50
94 60 110 10 17 34 61 54 98 20 37 46 84 57 104 11 19 17 43 14 52 -3 9 -7 18
-7 21 0 3 -11 18 -24 33 -13 16 -24 35 -24 42 0 7 -3 15 -8 17 -4 2 -50 71
-101 153 -104 166 -150 239 -193 303 -15 24 -28 46 -28 51 0 4 -8 16 -17 27
-10 11 -24 30 -30 42 -7 12 -19 32 -25 44 -7 12 -16 27 -21 32 -4 6 -60 94
-123 196 -64 102 -123 193 -131 203 -9 9 -12 17 -7 17 5 0 0 7 -10 15 -11 8
-17 15 -13 15 8 0 -44 83 -55 88 -5 2 -8 8 -8 14 0 5 -13 29 -30 53 -17 24
-30 48 -30 54 0 6 -4 11 -10 11 -5 0 -10 5 -10 10 0 6 -5 16 -10 23 -20 23
-90 138 -90 147 0 4 -4 10 -8 12 -11 4 -57 81 -54 91 1 4 -2 7 -8 7 -5 0 -17
16 -26 35 -9 19 -21 35 -26 35 -5 0 -6 5 -3 10 3 6 1 10 -4 10 -6 0 -11 5 -11
10 0 6 -27 51 -60 101 -33 50 -60 92 -60 94 0 2 -36 60 -80 129 -44 70 -80
131 -80 136 0 6 -4 10 -9 10 -5 0 -13 9 -16 20 -3 11 -12 26 -19 32 -11 12
-69 106 -91 149 -5 10 -13 19 -17 19 -5 0 -8 4 -8 10 0 9 -24 48 -137 222 -24
37 -43 71 -43 77 0 5 -3 11 -8 13 -10 4 -92 137 -92 149 0 5 -3 9 -7 9 -10 0
-47 62 -45 73 1 4 -2 7 -6 7 -5 0 -21 21 -36 48 -35 63 -50 86 -57 92 -3 3 -8
13 -12 23 -3 9 -10 17 -14 17 -4 0 -8 -1575 -8 -3499z"/>
</g>
</svg>
