<svg xmlns="http://www.w3.org/2000/svg" width="26" height="45" fill="none" viewBox="0 0 26 45"><path fill="#fff" d="M2 6.7a2 2 0 0 0-2 2v19.215a2 2 0 0 0 2 2h5.531c1.213 0 2.32.73 2.602 1.908.381 1.592.605 3.78-.6 4.932-2.033 1.945-2.004 4.98 0 6.84 1.944 1.803 4.99 1.803 6.934 0 2.004-1.86 2.033-4.895 0-6.84-1.205-1.153-.981-3.34-.6-4.932.283-1.18 1.39-1.908 2.602-1.908H24a2 2 0 0 0 2-2V8.7a2 2 0 0 0-2-2Zm0 2h22v9.094H2Zm0 11.094h22v3.146H2Zm0 5.146h22v2.975h-5.531c-1.963 0-4.01 1.204-4.547 3.44-.213.888-.41 2.044-.348 3.204.06 1.142.388 2.568 1.51 3.64 1.215 1.163 1.17 2.865.023 3.929a3.122 3.122 0 0 1-4.214 0c-1.147-1.064-1.192-2.766.023-3.928 1.121-1.073 1.45-2.5 1.51-3.64.061-1.161-.135-2.317-.348-3.204-.536-2.237-2.584-3.441-4.547-3.441H2Z"/></svg>