<svg xmlns="http://www.w3.org/2000/svg" width="34.5" height="34.946" fill="none" viewBox="0 0 34.5 34.946"><path fill="#fff" d="M8.842 0a2.99 2.99 0 0 0-2.18.874L1.418 6.116a3.015 3.015 0 0 0-.008 4.234h-.002l6.819 6.88L.58 24.875a2.015 2.015 0 0 0 0 2.83l6.662 6.66a2.015 2.015 0 0 0 2.83 0l7.663-7.662 6.39 6.36a3.016 3.016 0 0 0 4.238-.007l5.266-5.265a3.015 3.015 0 0 0-.05-4.29l-6.466-6.177 5.008-5.008a2 2 0 0 0 .56-1.094l1.281-7.995c.17-1.313-.883-2.546-2.282-2.255h-.002l-6.86 1.03s-1.659.358-2.1.778l-5.24 5.194-6.49-7.016A2.992 2.992 0 0 0 8.842 0Zm-.04 1.987a1 1 0 0 1 .716.328l6.547 7.076-6.424 6.422-1.553-1.566 1.053-1.055-1.414-1.412-1.047 1.047-1.73-1.747 2.3-2.3-1.415-1.413L3.543 9.66l-.713-.719a.984.984 0 0 1 .002-1.41l5.244-5.244a.998.998 0 0 1 .727-.301ZM32 2.946l-.16.986-1.133 6.97-1.244 1.245-1.976-1.098-.706-2.822-3.18-1.06-.827-1.657 1.27-1.27.987-.16ZM21.283 7l.9 1.802 2.925.973.65 2.602 2.232 1.242-13.52 13.52-6.663-6.663zm4.414 11.74 6.5 6.207a.984.984 0 0 1 .018 1.43l-5.266 5.265a.985.985 0 0 1-1.412.002l-.41-.408 2.29-2.29-1.415-1.413-2.293 2.293-1.742-1.733 1.039-1.037-1.414-1.414-1.041 1.041-1.402-1.394ZM6.393 21.89l6.664 6.662-4.4 4.4-6.665-6.663Z"/></svg>