<svg xmlns="http://www.w3.org/2000/svg" width="42" height="26" fill="none" viewBox="0 0 42 26"><path fill="#fff" d="M40.01 9.975a4.148 4.148 0 0 0-4.083-.184l-.705.354v-6.81a1.06 1.06 0 0 0-1.056-1.061c-2.636 0-4.85 1.853-5.425 4.332L23.051.879a1.05 1.05 0 0 0-1.492 0 6.2 6.2 0 0 0-.47.533 5.92 5.92 0 0 0-.84-1.078 1.05 1.05 0 0 0-1.513-.023l-6.973 7.017a11.982 11.982 0 0 0-3.458 7.453h-1.25c-.583 0-1.055.475-1.055 1.061v9.096C6 25.525 6.472 26 7.055 26h11.297c.163 0 .325-.038.471-.112l22.594-11.37c.357-.18.583-.548.583-.95a4.205 4.205 0 0 0-1.99-3.593ZM20.227 8.634a6.2 6.2 0 0 0 .47-.533c.24.396.528.765.862 1.1l2.516 2.533v3.39l-4.084 1.644-2.227-4.482a1.217 1.217 0 0 1 .225-1.4l2.238-2.252Zm8.367 9.963-10.492 5.28H8.11v-6.973h1.205c.583 0 1.055-.475 1.055-1.062a9.884 9.884 0 0 1 2.886-7.012l6.12-6.16a3.76 3.76 0 0 1 .455 1.803 3.748 3.748 0 0 1-1.095 2.66l-2.237 2.252a3.347 3.347 0 0 0-.621 3.85l2.661 5.356c.245.494.826.716 1.335.511l5.648-2.274c.4-.161.663-.551.663-.985v-4.548c0-.282-.11-.552-.309-.751L23.051 7.7a3.75 3.75 0 0 1-1.095-2.66c0-.64.158-1.257.455-1.803l6.183 6.222v9.137zm4.518-6.702c0 2.101-.892 4.04-2.409 5.378v-9.39a3.49 3.49 0 0 1 2.41-3.321zm1.317 3.766a9.327 9.327 0 0 0 .771-3.131l1.67-.84a2.063 2.063 0 0 1 2.03.091c.442.275.757.693.902 1.176z"/></svg>