<svg xmlns="http://www.w3.org/2000/svg" width="31" height="33.783" fill="none" viewBox="0 0 31 33.783"><path fill="#fff" d="M12.967 5.896h2.948v3.931h2.303c3.715 0 7.407-1.441 10.185-4.219l.694-.694-.694-.695A14.397 14.397 0 0 0 18.218 0h-2.303v3.93h-2.948V1.966H1.174v5.897h11.793zm4.913-3.93c.2.033 4.475-.372 8.38 2.948a12.345 12.345 0 0 1-8.042 2.948h-.338ZM7.07 5.896H3.14V3.931h3.93zm3.931 0H9.036V3.931H11z"/><path stroke="#fff" stroke-width="2" d="M14 15.783h10v6H14zM1 27.782h12v5H1zm12 0h11v5H13zm-4-5h11v5H9zm11 0h10v5H20z"/></svg>