<svg width="424" height="375" viewBox="0 0 424 375" fill="none" xmlns="http://www.w3.org/2000/svg"><g opacity=".8"><path d="m118.289 451.559 228.853 81.65L148.12 297.755l-29.831 153.804ZM101.051 312.561l16.664 138.436M130.628 257.361l-28.548 54.317 45.417-15.651-16.869-38.666Z" stroke="#192D62"/><path opacity=".9" d="m-7.1 181.575-9.682 195.053 117.064-63.44L-7.1 181.575Z" fill="url(#a)" fill-opacity=".3" stroke="#192D62"/><path d="m100.448 312.561 17.268 138.436-135.041-74.248" stroke="#28448A"/><path d="m100.751 312.561 29.607-55.209-139.063-77.101" stroke="#192D62"/><path d="M325.616 250.882 172.887 167.47l-41.734 90.047 194.463-6.635Z" stroke="#271962"/><path d="m172.881 165.913 170.669-14.452-16.168 99.233" stroke="#4F1962"/><path opacity=".6" d="m328.147 249.59 94.8-67.644-78.927-29.801-15.873 97.445Z" stroke="#4F1962"/><g filter="url(#b)"><ellipse rx=".575" ry=".613" transform="matrix(1 0 0 -1 101.625 311.948)" fill="#7B157B"/></g><g filter="url(#c)"><ellipse rx=".575" ry="1.225" transform="matrix(1 0 0 -1 130.358 257.432)" fill="#7B157B"/></g><g filter="url(#d)"><ellipse rx=".575" ry=".613" transform="matrix(1 0 0 -1 148.746 296.635)" fill="#5744CC"/></g></g><defs><filter id="b" x="93.051" y="303.336" width="17.149" height="17.225" filterUnits="userSpaceOnUse" color-interpolation-filters="sRGB"><feFlood flood-opacity="0" result="BackgroundImageFix"/><feColorMatrix in="SourceAlpha" values="0 0 0 0 0 0 0 0 0 0 0 0 0 0 0 0 0 0 127 0" result="hardAlpha"/><feMorphology radius="2" operator="dilate" in="SourceAlpha" result="effect1_dropShadow_2_473"/><feOffset/><feGaussianBlur stdDeviation="3"/><feComposite in2="hardAlpha" operator="out"/><feColorMatrix values="0 0 0 0 0.725 0 0 0 0 0.0845833 0 0 0 0 0.725 0 0 0 1 0"/><feBlend in2="BackgroundImageFix" result="effect1_dropShadow_2_473"/><feBlend in="SourceGraphic" in2="effect1_dropShadow_2_473" result="shape"/></filter><filter id="c" x="121.783" y="248.207" width="17.149" height="18.45" filterUnits="userSpaceOnUse" color-interpolation-filters="sRGB"><feFlood flood-opacity="0" result="BackgroundImageFix"/><feColorMatrix in="SourceAlpha" values="0 0 0 0 0 0 0 0 0 0 0 0 0 0 0 0 0 0 127 0" result="hardAlpha"/><feMorphology radius="2" operator="dilate" in="SourceAlpha" result="effect1_dropShadow_2_473"/><feOffset/><feGaussianBlur stdDeviation="3"/><feComposite in2="hardAlpha" operator="out"/><feColorMatrix values="0 0 0 0 0.725 0 0 0 0 0.0845833 0 0 0 0 0.725 0 0 0 1 0"/><feBlend in2="BackgroundImageFix" result="effect1_dropShadow_2_473"/><feBlend in="SourceGraphic" in2="effect1_dropShadow_2_473" result="shape"/></filter><filter id="d" x="140.172" y="288.022" width="17.149" height="17.225" filterUnits="userSpaceOnUse" color-interpolation-filters="sRGB"><feFlood flood-opacity="0" result="BackgroundImageFix"/><feColorMatrix in="SourceAlpha" values="0 0 0 0 0 0 0 0 0 0 0 0 0 0 0 0 0 0 127 0" result="hardAlpha"/><feMorphology radius="2" operator="dilate" in="SourceAlpha" result="effect1_dropShadow_2_473"/><feOffset/><feGaussianBlur stdDeviation="3"/><feComposite in2="hardAlpha" operator="out"/><feColorMatrix values="0 0 0 0 0.409722 0 0 0 0 0.333333 0 0 0 0 1 0 0 0 1 0"/><feBlend in2="BackgroundImageFix" result="effect1_dropShadow_2_473"/><feBlend in="SourceGraphic" in2="effect1_dropShadow_2_473" result="shape"/></filter><linearGradient id="a" x1="-2.64" y1="180.251" x2="47.562" y2="320.719" gradientUnits="userSpaceOnUse"><stop stop-color="#3C43DE"/><stop offset="1" stop-color="#565CEB" stop-opacity="0"/></linearGradient></defs></svg>