<svg width="37" height="24" viewBox="0 0 37 24" fill="none" xmlns="http://www.w3.org/2000/svg"><path fill-rule="evenodd" clip-rule="evenodd" d="M0 1a1 1 0 0 1 1-1h35a1 1 0 0 1 1 1v22a1 1 0 0 1-1 1H1a1 1 0 0 1-1-1V1Zm8.03 16.093c0-.142.03-.279.09-.409.063-.132.151-.25.266-.351a1.32 1.32 0 0 1 .413-.241c.159-.061.334-.092.527-.092.185 0 .355.032.51.095a1.17 1.17 0 0 1 .663.647c.062.146.093.305.093.476h-.587a.668.668 0 0 0-.19-.494.65.65 0 0 0-.489-.193.892.892 0 0 0-.292.046.666.666 0 0 0-.226.128.62.62 0 0 0-.145.184.457.457 0 0 0-.048.204c0 .139.051.245.154.32.104.074.232.138.383.193.152.053.318.106.497.159.18.053.347.124.497.214.153.09.28.207.383.354.105.144.157.336.157.574a.913.913 0 0 1-.097.409c-.064.13-.155.247-.274.351a1.336 1.336 0 0 1-.425.244 1.68 1.68 0 0 1-.564.089c-.209 0-.395-.03-.557-.089a1.288 1.288 0 0 1-.42-.25 1.08 1.08 0 0 1-.262-.385A1.36 1.36 0 0 1 8 18.782h.585c0 .222.061.392.184.51.124.118.31.177.557.177.264 0 .458-.054.582-.162a.505.505 0 0 0 .19-.4.42.42 0 0 0-.154-.345 1.298 1.298 0 0 0-.382-.208 7.55 7.55 0 0 0-.498-.165 2.542 2.542 0 0 1-.497-.21 1.215 1.215 0 0 1-.383-.333c-.103-.139-.154-.323-.154-.553Zm6.235 2.315v.561h-2.622V16.03h2.562v.562h-1.977v1.063h1.82v.565h-1.82v1.188h2.037Zm1.527-.822a1.553 1.553 0 0 1-.109-.586c0-.212.037-.407.109-.586a1.56 1.56 0 0 1 .283-.467c.119-.133.253-.235.404-.306a1.075 1.075 0 0 1 1.158.138c.088.075.163.165.223.268.06.102.106.211.139.327h.618a1.852 1.852 0 0 0-.218-.531 1.76 1.76 0 0 0-.361-.437 1.561 1.561 0 0 0-.492-.296 1.7 1.7 0 0 0-1.305.043 1.84 1.84 0 0 0-.588.424A2.096 2.096 0 0 0 15.1 18c0 .283.05.546.15.788.1.242.236.454.404.635.17.181.365.323.588.424a1.7 1.7 0 0 0 .709.153c.223 0 .428-.036.614-.107a1.722 1.722 0 0 0 .866-.736c.098-.167.17-.344.217-.531h-.618a1.342 1.342 0 0 1-.139.327 1.017 1.017 0 0 1-.54.452 1.178 1.178 0 0 1-.4.064c-.161 0-.318-.037-.47-.11a1.33 1.33 0 0 1-.405-.306 1.614 1.614 0 0 1-.283-.467Zm5.198.883a.855.855 0 0 0 .34-.068.836.836 0 0 0 .458-.485c.045-.114.067-.242.067-.385v-2.5h.588v2.5c0 .212-.036.408-.108.59a1.376 1.376 0 0 1-.763.773c-.177.07-.37.106-.582.106-.209 0-.402-.036-.579-.107a1.409 1.409 0 0 1-.46-.305 1.433 1.433 0 0 1-.302-.467 1.576 1.576 0 0 1-.109-.59v-2.5h.588v2.5c0 .143.021.271.063.385a.873.873 0 0 0 .459.485.856.856 0 0 0 .34.068Zm3.209-1.063h.678l.895 1.564h.649l-.956-1.625a1.303 1.303 0 0 0 .73-.565c.09-.144.135-.332.135-.562a1.202 1.202 0 0 0-.344-.84 1.12 1.12 0 0 0-.373-.253 1.113 1.113 0 0 0-.456-.095h-1.543v3.94h.585v-1.564Zm.958-.562H24.2v-1.252h.958a.572.572 0 0 1 .404.186c.055.056.098.12.13.196a.584.584 0 0 1 .051.244.66.66 0 0 1-.365.577.504.504 0 0 1-.22.05ZM30 19.408v.561h-2.623V16.03h2.563v.562h-1.978v1.063h1.821v.565h-1.82v1.188H30Zm-15.91-6.523 1.32-7.754h2.115l-1.322 7.754h-2.114ZM12.316 5.14l-2.07 5.288-.22-.799c-.409-.962-1.567-2.343-2.928-3.214l1.893 6.467 2.236-.004 3.328-7.74-2.239.002Zm-4.013-.075c.442.017.798.157.92.63l.713 3.425C9.237 7.328 7.55 5.838 5 5.22l.027-.155h3.277Zm13.504 1.553c.692-.011 1.193.14 1.582.296l.19.09.287-1.68a5.455 5.455 0 0 0-1.894-.326c-2.088 0-3.56 1.052-3.571 2.559-.014 1.114 1.048 1.735 1.85 2.107.824.38 1.1.622 1.096.962-.006.519-.656.757-1.264.757-.846 0-1.295-.117-1.99-.406l-.272-.124-.297 1.735c.495.217 1.407.404 2.355.414 2.221 0 3.665-1.04 3.68-2.65.01-.881-.554-1.554-1.776-2.105-.739-.36-1.191-.6-1.187-.963 0-.322.384-.666 1.211-.666Zm5.85-1.478h1.632L31 12.89h-1.96s-.195-.891-.258-1.162a2159.315 2159.315 0 0 1-2.706-.003c-.083.21-.445 1.165-.445 1.165h-2.219l3.138-7.107c.223-.505.6-.643 1.107-.643Zm-.132 2.83s-.668 1.723-.842 2.168h1.755l-.49-2.24-.142-.668c-.053.143-.124.328-.182.478-.06.156-.105.273-.1.263Z" fill="#545472"/></svg>