<svg width="923" height="702" viewBox="0 0 923 702" fill="none" xmlns="http://www.w3.org/2000/svg" xmlns:xlink="http://www.w3.org/1999/xlink"><path clip-rule="evenodd" d="m762.954 214.925-.025 415.096-116.63-220.826 116.655-194.27Z" stroke="#3F2C5E" stroke-miterlimit="22.926" stroke-linecap="round" stroke-linejoin="round"/><path clip-rule="evenodd" d="m532.553 164.212-77.38 128.666-77.389-128.666H136.609l159.282 264.834 159.282 264.835 318.55-529.669h-241.17Z" stroke="url(#a)" stroke-miterlimit="22.926" stroke-linecap="round" stroke-linejoin="round"/><path opacity=".5" clip-rule="evenodd" d="m147.376 214.925.043 415.096 116.612-220.826-116.655-194.27Z" stroke="#192D62" stroke-miterlimit="22.926" stroke-linecap="round" stroke-linejoin="round"/><g opacity=".9"><mask id="c" fill="#fff"><path fill-rule="evenodd" clip-rule="evenodd" d="m103.128 505.883 351.14-212.071v400.069"/></mask><path fill-rule="evenodd" clip-rule="evenodd" d="m103.128 505.883 351.14-212.071v400.069" fill="url(#b)" fill-opacity=".3"/><path d="M454.268 293.812h1v-1.773l-1.517.917.517.856ZM103.645 506.739l351.14-212.071-1.034-1.712-351.14 212.071 1.034 1.712Zm349.623-212.927v400.069h2V293.812h-2Z" fill="#192D62" mask="url(#c)"/></g><g opacity=".4"><mask id="d" fill="#fff"><path fill-rule="evenodd" clip-rule="evenodd" d="m365.037 347.589 16.43 115.813 72.801-169.59"/></mask><path d="m381.467 463.402-.99.14.501 3.533 1.408-3.279-.919-.394Zm-17.42-115.672 16.43 115.812 1.98-.281-16.43-115.812-1.98.281Zm18.339 116.066 72.801-169.59-1.838-.789-72.801 169.59 1.838.789Z" fill="#4F1962" mask="url(#d)"/></g><g opacity=".4"><mask id="f" fill="#fff"><path fill-rule="evenodd" clip-rule="evenodd" d="m454.268 693.881-72.464-230.457-103.264-63.239"/></mask><path fill-rule="evenodd" clip-rule="evenodd" d="m454.268 693.881-72.464-230.457-103.264-63.239" fill="url(#e)" fill-opacity=".7"/><path d="m381.804 463.424.954-.3-.112-.358-.32-.195-.522.853Zm73.418 230.157-72.464-230.457-1.908.6 72.465 230.457 1.907-.6Zm-72.896-231.01-103.264-63.238-1.044 1.705 103.264 63.238 1.044-1.705Z" fill="#4F1962" mask="url(#f)"/></g><path opacity=".4" d="m.56 54.77 364.164 292.704.627-.78L1.187 53.991l-.626.78Z" fill="url(#g)"/><path opacity=".4" d="m376.591 164.39-12.052 182.661.998.066 12.052-182.661-.998-.066Z" fill="url(#h)"/><path opacity=".6" d="m147.376 331.377 116.655 77.636" stroke="#51397F" stroke-miterlimit="22.926" stroke-linecap="round" stroke-linejoin="round"/><path d="m879.143 334.971-232.844 73.595 145.704 106.782" stroke="#262F4D" stroke-miterlimit="22.926" stroke-linecap="round" stroke-linejoin="round"/><g opacity=".4"><mask id="j" fill="#fff"><path fill-rule="evenodd" clip-rule="evenodd" d="m454.269 292.244 142.215 27.863 177.239-155.895"/></mask><path fill-rule="evenodd" clip-rule="evenodd" d="m454.269 292.244 142.215 27.863 177.239-155.895" fill="url(#i)" fill-opacity=".7"/><path d="m596.484 320.107-.192.982.483.094.369-.325-.66-.751Zm-142.408-26.882 142.216 27.864.384-1.963-142.215-27.864-.385 1.963Zm143.068 27.633 177.239-155.896-1.32-1.501-177.239 155.895 1.32 1.502Z" fill="#4F1962" mask="url(#j)"/></g><g opacity=".9"><mask id="l" fill="#fff"><path fill-rule="evenodd" clip-rule="evenodd" d="m454.269 693.881 142.344-373.774 3.025 132.451"/></mask><path fill-rule="evenodd" clip-rule="evenodd" d="m454.269 693.881 142.344-373.774 3.025 132.451" fill="url(#k)" fill-opacity=".3"/><path d="m596.613 320.107.999-.023-1.934-.333.935.356Zm-141.41 374.13 142.344-373.774-1.869-.712-142.344 373.774 1.869.712Zm140.41-374.107 3.026 132.451 1.999-.046-3.026-132.451-1.999.046Z" fill="#192D62" mask="url(#l)"/></g><path d="m533.234 164.212 63.27 156.068" stroke="url(#m)" stroke-miterlimit="22.926" stroke-linecap="round" stroke-linejoin="round"/><g filter="url(#n)"><circle cx="104" cy="506" r="1" fill="#501850"/></g><g opacity=".6" filter="url(#o)"><ellipse cx="729.863" cy="230.01" rx="108.649" ry="98.442" fill="#5C11B5" fill-opacity=".3" shape-rendering="crispEdges"/></g><g filter="url(#p)"><ellipse cx="146.976" cy="288.404" rx="1.254" ry=".76" fill="#501850"/></g><g opacity=".5" filter="url(#q)"><ellipse cx="790.928" cy="447.278" rx=".835" ry=".76" fill="#7B157B"/></g><g filter="url(#r)"><ellipse cx="646.836" cy="408.52" rx=".836" ry="1.52" fill="#7B157B"/></g><g filter="url(#s)"><ellipse cx="136.608" cy="163.553" rx=".608" ry=".553" fill="#7B157B"/></g><g filter="url(#t)"><ellipse cx="762.507" cy="494.281" rx="2.507" ry="2.28" fill="#4B37C7"/></g><g filter="url(#u)"><ellipse cx="365.418" cy="347.38" rx=".418" ry=".38" fill="#4B37C7"/></g><g opacity=".8" filter="url(#v)"><ellipse cx="774.089" cy="165.901" rx="2.089" ry="1.9" fill="#4B37C7"/></g><path opacity=".6" transform="matrix(.99856 .0537 -.06487 .9979 349.89 249)" fill="url(#w)" d="M0 0h215.804v75.392H0z"/><g filter="url(#x)"><ellipse cx="148.229" cy="629.76" rx=".835" ry=".76" fill="#5744CC"/></g><g filter="url(#y)"><circle cx="381" cy="463" r="1" fill="#5744CC"/></g><g filter="url(#z)"><ellipse cx="878.243" cy="336.13" rx="1.243" ry="1.13" fill="#5744CC"/></g><g opacity=".5" filter="url(#A)"><ellipse cx="279.443" cy="347.696" rx=".835" ry=".76" fill="#5744CC"/></g><defs><filter id="n" x="89" y="491" width="30" height="30" filterUnits="userSpaceOnUse" color-interpolation-filters="sRGB"><feFlood flood-opacity="0" result="BackgroundImageFix"/><feColorMatrix in="SourceAlpha" values="0 0 0 0 0 0 0 0 0 0 0 0 0 0 0 0 0 0 127 0" result="hardAlpha"/><feMorphology radius="4" operator="dilate" in="SourceAlpha" result="effect1_dropShadow_2_498"/><feOffset/><feGaussianBlur stdDeviation="5"/><feComposite in2="hardAlpha" operator="out"/><feColorMatrix values="0 0 0 0 0.396078 0 0 0 0 0.113725 0 0 0 0 0.333333 0 0 0 1 0"/><feBlend in2="BackgroundImageFix" result="effect1_dropShadow_2_498"/><feBlend in="SourceGraphic" in2="effect1_dropShadow_2_498" result="shape"/></filter><filter id="o" x="171.214" y="-318.432" width="1117.3" height="1096.88" filterUnits="userSpaceOnUse" color-interpolation-filters="sRGB"><feColorMatrix in="SourceAlpha" values="0 0 0 0 0 0 0 0 0 0 0 0 0 0 0 0 0 0 127 0" result="hardAlpha"/><feMorphology radius="200" operator="dilate" in="SourceAlpha" result="effect1_dropShadow_2_498"/><feGaussianBlur stdDeviation="125"/><feColorMatrix values="0 0 0 0 0.376418 0 0 0 0 0.0679861 0 0 0 0 0.741667 0 0 0 0.3 0"/></filter><filter id="p" x="131.722" y="273.643" width="30.507" height="29.52" filterUnits="userSpaceOnUse" color-interpolation-filters="sRGB"><feFlood flood-opacity="0" result="BackgroundImageFix"/><feColorMatrix in="SourceAlpha" values="0 0 0 0 0 0 0 0 0 0 0 0 0 0 0 0 0 0 127 0" result="hardAlpha"/><feMorphology radius="4" operator="dilate" in="SourceAlpha" result="effect1_dropShadow_2_498"/><feOffset/><feGaussianBlur stdDeviation="5"/><feComposite in2="hardAlpha" operator="out"/><feColorMatrix values="0 0 0 0 0.396078 0 0 0 0 0.113725 0 0 0 0 0.333333 0 0 0 1 0"/><feBlend in2="BackgroundImageFix" result="effect1_dropShadow_2_498"/><feBlend in="SourceGraphic" in2="effect1_dropShadow_2_498" result="shape"/></filter><filter id="q" x="782.093" y="438.519" width="17.67" height="17.519" filterUnits="userSpaceOnUse" color-interpolation-filters="sRGB"><feFlood flood-opacity="0" result="BackgroundImageFix"/><feColorMatrix in="SourceAlpha" values="0 0 0 0 0 0 0 0 0 0 0 0 0 0 0 0 0 0 127 0" result="hardAlpha"/><feMorphology radius="2" operator="dilate" in="SourceAlpha" result="effect1_dropShadow_2_498"/><feOffset/><feGaussianBlur stdDeviation="3"/><feComposite in2="hardAlpha" operator="out"/><feColorMatrix values="0 0 0 0 0.725 0 0 0 0 0.0845833 0 0 0 0 0.725 0 0 0 1 0"/><feBlend in2="BackgroundImageFix" result="effect1_dropShadow_2_498"/><feBlend in="SourceGraphic" in2="effect1_dropShadow_2_498" result="shape"/></filter><filter id="r" x="638" y="399" width="17.672" height="19.041" filterUnits="userSpaceOnUse" color-interpolation-filters="sRGB"><feFlood flood-opacity="0" result="BackgroundImageFix"/><feColorMatrix in="SourceAlpha" values="0 0 0 0 0 0 0 0 0 0 0 0 0 0 0 0 0 0 127 0" result="hardAlpha"/><feMorphology radius="2" operator="dilate" in="SourceAlpha" result="effect1_dropShadow_2_498"/><feOffset/><feGaussianBlur stdDeviation="3"/><feComposite in2="hardAlpha" operator="out"/><feColorMatrix values="0 0 0 0 0.725 0 0 0 0 0.0845833 0 0 0 0 0.725 0 0 0 1 0"/><feBlend in2="BackgroundImageFix" result="effect1_dropShadow_2_498"/><feBlend in="SourceGraphic" in2="effect1_dropShadow_2_498" result="shape"/></filter><filter id="s" x="128" y="155" width="17.216" height="17.106" filterUnits="userSpaceOnUse" color-interpolation-filters="sRGB"><feFlood flood-opacity="0" result="BackgroundImageFix"/><feColorMatrix in="SourceAlpha" values="0 0 0 0 0 0 0 0 0 0 0 0 0 0 0 0 0 0 127 0" result="hardAlpha"/><feMorphology radius="2" operator="dilate" in="SourceAlpha" result="effect1_dropShadow_2_498"/><feOffset/><feGaussianBlur stdDeviation="3"/><feComposite in2="hardAlpha" operator="out"/><feColorMatrix values="0 0 0 0 0.725 0 0 0 0 0.0845833 0 0 0 0 0.725 0 0 0 1 0"/><feBlend in2="BackgroundImageFix" result="effect1_dropShadow_2_498"/><feBlend in="SourceGraphic" in2="effect1_dropShadow_2_498" result="shape"/></filter><filter id="t" x="752" y="484" width="21.015" height="20.561" filterUnits="userSpaceOnUse" color-interpolation-filters="sRGB"><feFlood flood-opacity="0" result="BackgroundImageFix"/><feColorMatrix in="SourceAlpha" values="0 0 0 0 0 0 0 0 0 0 0 0 0 0 0 0 0 0 127 0" result="hardAlpha"/><feMorphology radius="2" operator="dilate" in="SourceAlpha" result="effect1_dropShadow_2_498"/><feOffset/><feGaussianBlur stdDeviation="3"/><feComposite in2="hardAlpha" operator="out"/><feColorMatrix values="0 0 0 0 0.409722 0 0 0 0 0.333333 0 0 0 0 1 0 0 0 1 0"/><feBlend in2="BackgroundImageFix" result="effect1_dropShadow_2_498"/><feBlend in="SourceGraphic" in2="effect1_dropShadow_2_498" result="shape"/></filter><filter id="u" x="357" y="339" width="16.835" height="16.761" filterUnits="userSpaceOnUse" color-interpolation-filters="sRGB"><feFlood flood-opacity="0" result="BackgroundImageFix"/><feColorMatrix in="SourceAlpha" values="0 0 0 0 0 0 0 0 0 0 0 0 0 0 0 0 0 0 127 0" result="hardAlpha"/><feMorphology radius="2" operator="dilate" in="SourceAlpha" result="effect1_dropShadow_2_498"/><feOffset/><feGaussianBlur stdDeviation="3"/><feComposite in2="hardAlpha" operator="out"/><feColorMatrix values="0 0 0 0 0.409722 0 0 0 0 0.333333 0 0 0 0 1 0 0 0 1 0"/><feBlend in2="BackgroundImageFix" result="effect1_dropShadow_2_498"/><feBlend in="SourceGraphic" in2="effect1_dropShadow_2_498" result="shape"/></filter><filter id="v" x="764" y="156" width="20.179" height="19.801" filterUnits="userSpaceOnUse" color-interpolation-filters="sRGB"><feFlood flood-opacity="0" result="BackgroundImageFix"/><feColorMatrix in="SourceAlpha" values="0 0 0 0 0 0 0 0 0 0 0 0 0 0 0 0 0 0 127 0" result="hardAlpha"/><feMorphology radius="2" operator="dilate" in="SourceAlpha" result="effect1_dropShadow_2_498"/><feOffset/><feGaussianBlur stdDeviation="3"/><feComposite in2="hardAlpha" operator="out"/><feColorMatrix values="0 0 0 0 0.409722 0 0 0 0 0.333333 0 0 0 0 1 0 0 0 1 0"/><feBlend in2="BackgroundImageFix" result="effect1_dropShadow_2_498"/><feBlend in="SourceGraphic" in2="effect1_dropShadow_2_498" result="shape"/></filter><filter id="x" x="139.394" y="621" width="17.67" height="17.519" filterUnits="userSpaceOnUse" color-interpolation-filters="sRGB"><feFlood flood-opacity="0" result="BackgroundImageFix"/><feColorMatrix in="SourceAlpha" values="0 0 0 0 0 0 0 0 0 0 0 0 0 0 0 0 0 0 127 0" result="hardAlpha"/><feMorphology radius="2" operator="dilate" in="SourceAlpha" result="effect1_dropShadow_2_498"/><feOffset/><feGaussianBlur stdDeviation="3"/><feComposite in2="hardAlpha" operator="out"/><feColorMatrix values="0 0 0 0 0.409722 0 0 0 0 0.333333 0 0 0 0 1 0 0 0 1 0"/><feBlend in2="BackgroundImageFix" result="effect1_dropShadow_2_498"/><feBlend in="SourceGraphic" in2="effect1_dropShadow_2_498" result="shape"/></filter><filter id="y" x="372" y="454" width="18" height="18" filterUnits="userSpaceOnUse" color-interpolation-filters="sRGB"><feFlood flood-opacity="0" result="BackgroundImageFix"/><feColorMatrix in="SourceAlpha" values="0 0 0 0 0 0 0 0 0 0 0 0 0 0 0 0 0 0 127 0" result="hardAlpha"/><feMorphology radius="2" operator="dilate" in="SourceAlpha" result="effect1_dropShadow_2_498"/><feOffset/><feGaussianBlur stdDeviation="3"/><feComposite in2="hardAlpha" operator="out"/><feColorMatrix values="0 0 0 0 0.409722 0 0 0 0 0.333333 0 0 0 0 1 0 0 0 1 0"/><feBlend in2="BackgroundImageFix" result="effect1_dropShadow_2_498"/><feBlend in="SourceGraphic" in2="effect1_dropShadow_2_498" result="shape"/></filter><filter id="z" x="869" y="327" width="18.485" height="18.261" filterUnits="userSpaceOnUse" color-interpolation-filters="sRGB"><feFlood flood-opacity="0" result="BackgroundImageFix"/><feColorMatrix in="SourceAlpha" values="0 0 0 0 0 0 0 0 0 0 0 0 0 0 0 0 0 0 127 0" result="hardAlpha"/><feMorphology radius="2" operator="dilate" in="SourceAlpha" result="effect1_dropShadow_2_498"/><feOffset/><feGaussianBlur stdDeviation="3"/><feComposite in2="hardAlpha" operator="out"/><feColorMatrix values="0 0 0 0 0.409722 0 0 0 0 0.333333 0 0 0 0 1 0 0 0 1 0"/><feBlend in2="BackgroundImageFix" result="effect1_dropShadow_2_498"/><feBlend in="SourceGraphic" in2="effect1_dropShadow_2_498" result="shape"/></filter><filter id="A" x="270.608" y="338.937" width="17.67" height="17.519" filterUnits="userSpaceOnUse" color-interpolation-filters="sRGB"><feFlood flood-opacity="0" result="BackgroundImageFix"/><feColorMatrix in="SourceAlpha" values="0 0 0 0 0 0 0 0 0 0 0 0 0 0 0 0 0 0 127 0" result="hardAlpha"/><feMorphology radius="2" operator="dilate" in="SourceAlpha" result="effect1_dropShadow_2_498"/><feOffset/><feGaussianBlur stdDeviation="3"/><feComposite in2="hardAlpha" operator="out"/><feColorMatrix values="0 0 0 0 0.409722 0 0 0 0 0.333333 0 0 0 0 1 0 0 0 1 0"/><feBlend in2="BackgroundImageFix" result="effect1_dropShadow_2_498"/><feBlend in="SourceGraphic" in2="effect1_dropShadow_2_498" result="shape"/></filter><linearGradient id="b" x1="663.467" y1="260.638" x2="405.402" y2="464.536" gradientUnits="userSpaceOnUse"><stop stop-color="#3C43DE" stop-opacity=".63"/><stop offset="1" stop-color="#565CEB" stop-opacity="0"/></linearGradient><linearGradient id="e" x1="496.849" y1="609.473" x2="238.585" y2="623.377" gradientUnits="userSpaceOnUse"><stop stop-color="#D04AFF" stop-opacity=".48"/><stop offset=".766" stop-color="#CF48FF" stop-opacity="0"/></linearGradient><linearGradient id="g" x1="270.121" y1="240.753" x2="-28.417" y2="17.954" gradientUnits="userSpaceOnUse"><stop stop-color="#77368E"/><stop offset="1" stop-color="#77368E" stop-opacity="0"/></linearGradient><linearGradient id="h" x1="270.121" y1="240.752" x2="83.821" y2="97.02" gradientUnits="userSpaceOnUse"><stop stop-color="#77368E"/><stop offset="1" stop-color="#77368E" stop-opacity="0"/></linearGradient><linearGradient id="i" x1="851.129" y1="275.303" x2="395.755" y2="359.266" gradientUnits="userSpaceOnUse"><stop stop-color="#D04AFF" stop-opacity=".48"/><stop offset=".766" stop-color="#CF48FF" stop-opacity="0"/></linearGradient><linearGradient id="k" x1="472.303" y1="693.881" x2="599.246" y2="463.7" gradientUnits="userSpaceOnUse"><stop stop-color="#3C43DE"/><stop offset="1" stop-color="#565CEB" stop-opacity="0"/></linearGradient><linearGradient id="m" x1="564.869" y1="164.212" x2="564.869" y2="320.28" gradientUnits="userSpaceOnUse"><stop stop-color="#7C4DAD"/><stop offset="1" stop-color="#7C4DAD" stop-opacity="0"/></linearGradient><radialGradient id="a" cx="0" cy="0" r="1" gradientUnits="userSpaceOnUse" gradientTransform="rotate(91.139 70.224 383.374) scale(437.544 526.321)"><stop stop-color="#B571FF"/><stop offset="1" stop-color="#593085" stop-opacity="0"/></radialGradient><pattern id="w" patternContentUnits="objectBoundingBox" width="1" height="1"><use xlink:href="#B" transform="matrix(.00125 0 0 .00358 0 -.053)"/></pattern><image id="B" width="800" height="309" href="blink_01.png"/></defs></svg>