<svg width="139" height="28" viewBox="0 0 139 28" fill="none" xmlns="http://www.w3.org/2000/svg"><path d="M138.653 13.129a9.584 9.584 0 0 1-.705 3.664 9.345 9.345 0 0 1-2.058 3.083 9.555 9.555 0 0 1-3.076 2.073 9.187 9.187 0 0 1-3.591.721 9.335 9.335 0 0 1-6.696-2.794 9.22 9.22 0 0 1-2.05-3.07 9.628 9.628 0 0 1-.7-3.677 9.69 9.69 0 0 1 .7-3.677 9.323 9.323 0 0 1 2.05-3.096 9.327 9.327 0 0 1 3.064-2.06 9.43 9.43 0 0 1 3.632-.709c1.268 0 2.471.238 3.611.708a9.305 9.305 0 0 1 3.056 2.061 9.647 9.647 0 0 1 2.058 3.113 9.625 9.625 0 0 1 .705 3.66Zm-78.68.076c-.033-.14-.087-.53-.157-1.166-.066-.53-.123-.971-.169-1.32a9.565 9.565 0 0 1-.308 1.244c-.132.415-.301.835-.503 1.267l-4.268 8.957h-.696l-4.276-9.156a13.874 13.874 0 0 1-.869-2.311c-.008.382-.037.78-.09 1.2-.054.42-.132.857-.235 1.31l-1.894 8.957h-2.644l4.008-18.195h.513l4.868 10.718c.078.179.201.484.366.904.165.424.362.945.597 1.565.169-.522.437-1.184.799-1.985.095-.216.169-.382.214-.496l4.756-10.706h.51l4.098 18.195h-2.668l-1.952-8.982Zm20.109 8.982-2.002-4.682h-7l-2.05 4.682h-3.015l8.232-18.195h.642l8.223 18.195h-3.03Zm-7.94-7.15h4.925l-1.811-4.147a15.963 15.963 0 0 1-.326-.912 21.027 21.027 0 0 1-.337-1.15c-.095.4-.198.768-.31 1.112-.106.343-.217.661-.329.95l-1.811 4.147Zm12.63 7.15V3.992h.717l10.508 10.405c.305.313.613.649.93 1.005.313.356.643.759.988 1.204V3.994h2.644v18.193h-.72l-10.723-10.61c-.305-.31-.601-.632-.885-.971-.288-.34-.556-.696-.816-1.07v12.65h-2.643Zm31.513 0-2.001-4.682h-7l-2.051 4.682h-3.014l8.231-18.195h.642l8.224 18.195h-3.031Zm-7.939-7.15h4.925l-1.812-4.147a15.978 15.978 0 0 1-.325-.912 21.013 21.013 0 0 1-.338-1.15 14.67 14.67 0 0 1-.309 1.112c-.107.343-.218.661-.329.95l-1.812 4.147Zm27.317-1.908c0-.92-.165-1.794-.49-2.621a6.832 6.832 0 0 0-1.404-2.21 6.212 6.212 0 0 0-2.067-1.471 6.134 6.134 0 0 0-2.479-.517 6.203 6.203 0 0 0-4.575 1.989 6.611 6.611 0 0 0-1.4 2.196 7.213 7.213 0 0 0-.482 2.634c0 .92.161 1.79.482 2.608a6.79 6.79 0 0 0 1.4 2.196 6.257 6.257 0 0 0 2.088 1.48c.778.34 1.61.51 2.487.51.86 0 1.676-.17 2.454-.51a6.447 6.447 0 0 0 2.092-1.48 6.842 6.842 0 0 0 1.404-2.2c.325-.827.49-1.693.49-2.604Z" fill="#fff"/><path fill-rule="evenodd" clip-rule="evenodd" d="M17.517 8.358 13.133 0 0 .055l12.023 19.18L17.517 28l5.493-8.765L35.034.055 21.9 0l-4.384 8.358ZM.832 3.021 7.27 13.268.832 24.978V3.021ZM34.22 3.021l-6.436 10.247 6.436 11.71V3.021Z" fill="#fff"/></svg>