<svg xmlns="http://www.w3.org/2000/svg" width="424" height="375" fill="none" viewBox="0 0 424 375"><g opacity=".8"><path stroke="#192D62" d="m118.289 451.559 228.853 81.65L148.12 297.755l-29.831 153.804Zm-17.238-138.998 16.664 138.436m12.913-193.636-28.548 54.317 45.417-15.651-16.869-38.666Z"/><path fill="url(#a)" fill-opacity=".3" stroke="#192D62" d="m-7.1 181.575-9.682 195.053 117.064-63.44L-7.1 181.575Z" opacity=".9"/><path stroke="#28448A" d="m100.448 312.561 17.268 138.436-135.041-74.248"/><path stroke="#192D62" d="m100.751 312.561 29.607-55.209-139.063-77.101"/><path stroke="#271962" d="M325.616 250.882 172.887 167.47l-41.734 90.047 194.463-6.635Z"/><path stroke="#4F1962" d="m172.881 165.913 170.669-14.452-16.168 99.233"/><path stroke="#4F1962" d="m328.147 249.59 94.8-67.644-78.927-29.801-15.873 97.445Z" opacity=".6"/><g filter="url(#b)"><ellipse fill="#7B157B" rx=".575" ry=".613" transform="matrix(1 0 0 -1 101.625 311.948)"/></g><g filter="url(#c)"><ellipse fill="#7B157B" rx=".575" ry="1.225" transform="matrix(1 0 0 -1 130.358 257.432)"/></g><g filter="url(#d)"><ellipse fill="#5744CC" rx=".575" ry=".613" transform="matrix(1 0 0 -1 148.746 296.635)"/></g></g><defs><filter id="b" width="17.149" height="17.225" x="93.051" y="303.336" color-interpolation-filters="sRGB" filterUnits="userSpaceOnUse"><feFlood flood-opacity="0" result="BackgroundImageFix"/><feColorMatrix in="SourceAlpha" result="hardAlpha" values="0 0 0 0 0 0 0 0 0 0 0 0 0 0 0 0 0 0 127 0"/><feMorphology in="SourceAlpha" operator="dilate" radius="2" result="effect1_dropShadow_2_473"/><feOffset/><feGaussianBlur stdDeviation="3"/><feComposite in2="hardAlpha" operator="out"/><feColorMatrix values="0 0 0 0 0.725 0 0 0 0 0.0845833 0 0 0 0 0.725 0 0 0 1 0"/><feBlend in2="BackgroundImageFix" result="effect1_dropShadow_2_473"/><feBlend in="SourceGraphic" in2="effect1_dropShadow_2_473" result="shape"/></filter><filter id="c" width="17.149" height="18.45" x="121.783" y="248.207" color-interpolation-filters="sRGB" filterUnits="userSpaceOnUse"><feFlood flood-opacity="0" result="BackgroundImageFix"/><feColorMatrix in="SourceAlpha" result="hardAlpha" values="0 0 0 0 0 0 0 0 0 0 0 0 0 0 0 0 0 0 127 0"/><feMorphology in="SourceAlpha" operator="dilate" radius="2" result="effect1_dropShadow_2_473"/><feOffset/><feGaussianBlur stdDeviation="3"/><feComposite in2="hardAlpha" operator="out"/><feColorMatrix values="0 0 0 0 0.725 0 0 0 0 0.0845833 0 0 0 0 0.725 0 0 0 1 0"/><feBlend in2="BackgroundImageFix" result="effect1_dropShadow_2_473"/><feBlend in="SourceGraphic" in2="effect1_dropShadow_2_473" result="shape"/></filter><filter id="d" width="17.149" height="17.225" x="140.172" y="288.022" color-interpolation-filters="sRGB" filterUnits="userSpaceOnUse"><feFlood flood-opacity="0" result="BackgroundImageFix"/><feColorMatrix in="SourceAlpha" result="hardAlpha" values="0 0 0 0 0 0 0 0 0 0 0 0 0 0 0 0 0 0 127 0"/><feMorphology in="SourceAlpha" operator="dilate" radius="2" result="effect1_dropShadow_2_473"/><feOffset/><feGaussianBlur stdDeviation="3"/><feComposite in2="hardAlpha" operator="out"/><feColorMatrix values="0 0 0 0 0.409722 0 0 0 0 0.333333 0 0 0 0 1 0 0 0 1 0"/><feBlend in2="BackgroundImageFix" result="effect1_dropShadow_2_473"/><feBlend in="SourceGraphic" in2="effect1_dropShadow_2_473" result="shape"/></filter><linearGradient id="a" x1="-2.64" x2="47.562" y1="180.251" y2="320.719" gradientUnits="userSpaceOnUse"><stop stop-color="#3C43DE"/><stop offset="1" stop-color="#565CEB" stop-opacity="0"/></linearGradient></defs></svg>