<svg xmlns="http://www.w3.org/2000/svg" xmlns:xlink="http://www.w3.org/1999/xlink" width="1440" height="702" fill="none" viewBox="0 0 1440 702"><mask id="a" width="1440" height="702" x="0" y="0" maskUnits="userSpaceOnUse" style="mask-type:alpha"><path fill="#040B2A" d="M0 0h1440v702H0z"/></mask><g mask="url(#a)"><g opacity=".8"><path stroke="#192D62" d="m118.289 778.559 228.853 81.65L148.12 624.755l-29.831 153.804ZM101.051 639.561l16.664 138.436M130.628 584.361l-28.548 54.317 45.417-15.651-16.869-38.666Z"/><path fill="url(#b)" fill-opacity=".3" stroke="#192D62" d="m-7.1 508.575-9.682 195.053 117.064-63.44L-7.1 508.575Z" opacity=".9"/><path stroke="#28448A" d="m100.448 639.561 17.268 138.436-135.041-74.248"/><path stroke="#192D62" d="m100.751 639.561 29.607-55.209-139.063-77.101"/><path stroke="#271962" d="M325.616 577.882 172.887 494.47l-41.734 90.047 194.463-6.635Z"/><path stroke="#4F1962" d="m172.881 492.913 170.669-14.452-16.168 99.233"/><path stroke="#4F1962" d="m328.147 576.59 94.8-67.644-78.927-29.801-15.873 97.445Z" opacity=".6"/><g filter="url(#c)"><ellipse fill="#7B157B" rx=".575" ry=".613" transform="matrix(1 0 0 -1 101.625 638.948)"/></g><g filter="url(#d)"><ellipse fill="#7B157B" rx=".575" ry="1.225" transform="matrix(1 0 0 -1 130.358 584.432)"/></g><g filter="url(#e)"><ellipse fill="#5744CC" rx=".575" ry=".613" transform="matrix(1 0 0 -1 148.746 623.635)"/></g></g></g><mask id="f" width="964" height="702" x="476" y="0" maskUnits="userSpaceOnUse" style="mask-type:alpha"><path fill="#040B2A" d="M476 0h964v702H476z"/></mask><g mask="url(#f)"><path stroke="#310E3E" d="m618.441 655.689-6.263 118.192-79.976-85.958"/><ellipse cx="1258" cy="546.751" fill="url(#g)" opacity=".7" rx="426" ry="446.638"/><path fill="url(#h)" d="M59-191h730.764v443.113H59z" opacity=".3"/><path stroke="#3F2C5E" stroke-linecap="round" stroke-linejoin="round" stroke-miterlimit="22.926" d="m1279.95 214.925-.02 415.096-116.63-220.826 116.65-194.27Z" clip-rule="evenodd"/><path stroke="url(#i)" stroke-linecap="round" stroke-linejoin="round" stroke-miterlimit="22.926" d="m1049.55 164.212-77.377 128.666-77.389-128.666H653.609l159.282 264.834 159.282 264.835 318.547-529.669h-241.17Z" clip-rule="evenodd"/><path stroke="#192D62" stroke-linecap="round" stroke-linejoin="round" stroke-miterlimit="22.926" d="m664.376 214.925.043 415.096 116.612-220.826-116.655-194.27Z" clip-rule="evenodd" opacity=".5"/><g opacity=".9"><mask id="k" fill="#fff"><path fill-rule="evenodd" d="m620.128 505.883 351.14-212.071v400.069" clip-rule="evenodd"/></mask><path fill="url(#j)" fill-opacity=".3" fill-rule="evenodd" d="m620.128 505.883 351.14-212.071v400.069" clip-rule="evenodd"/><path fill="#192D62" d="M971.268 293.812h1v-1.773l-1.517.917.517.856ZM620.645 506.739l351.14-212.071-1.034-1.712-351.14 212.071 1.034 1.712Zm349.623-212.927v400.069h2V293.812h-2Z" mask="url(#k)"/></g><g opacity=".4"><mask id="l" fill="#fff"><path fill-rule="evenodd" d="m882.037 347.589 16.43 115.813 72.801-169.59" clip-rule="evenodd"/></mask><path fill="#4F1962" d="m898.467 463.402-.99.14.501 3.533 1.408-3.279-.919-.394Zm-17.42-115.672 16.43 115.812 1.98-.281-16.43-115.812-1.98.281Zm18.339 116.066 72.801-169.59-1.838-.789-72.801 169.59 1.838.789Z" mask="url(#l)"/></g><g opacity=".4"><mask id="n" fill="#fff"><path fill-rule="evenodd" d="m971.268 693.881-72.464-230.457-103.264-63.239" clip-rule="evenodd"/></mask><path fill="url(#m)" fill-opacity=".7" fill-rule="evenodd" d="m971.268 693.881-72.464-230.457-103.264-63.239" clip-rule="evenodd"/><path fill="#4F1962" d="m898.804 463.424.954-.3-.112-.358-.32-.195-.522.853Zm73.418 230.157-72.464-230.457-1.908.6 72.465 230.457 1.907-.6Zm-72.896-231.01-103.264-63.238-1.044 1.705 103.264 63.238 1.044-1.705Z" mask="url(#n)"/></g><path fill="url(#o)" d="m517.561 54.77 364.163 292.704.627-.78L518.187 53.991l-.626.78Z" opacity=".4"/><path fill="url(#p)" d="m893.591 164.39-12.052 182.661.998.066 12.052-182.661-.998-.066Z" opacity=".4"/><path stroke="#51397F" stroke-linecap="round" stroke-linejoin="round" stroke-miterlimit="22.926" d="m664.376 331.377 116.655 77.636" opacity=".6"/><path stroke="#262F4D" stroke-linecap="round" stroke-linejoin="round" stroke-miterlimit="22.926" d="m1396.14 334.971-232.84 73.595L1309 515.348"/><g opacity=".4"><mask id="r" fill="#fff"><path fill-rule="evenodd" d="m971.269 292.244 142.211 27.863 177.24-155.895" clip-rule="evenodd"/></mask><path fill="url(#q)" fill-opacity=".7" fill-rule="evenodd" d="m971.269 292.244 142.211 27.863 177.24-155.895" clip-rule="evenodd"/><path fill="#4F1962" d="m1113.48 320.107-.19.982.48.094.37-.325-.66-.751Zm-142.404-26.882 142.214 27.864.39-1.963-142.219-27.864-.385 1.963Zm143.064 27.633 177.24-155.896-1.32-1.501-177.24 155.895 1.32 1.502Z" mask="url(#r)"/></g><g opacity=".9"><mask id="t" fill="#fff"><path fill-rule="evenodd" d="m971.269 693.881 142.341-373.774 3.03 132.451" clip-rule="evenodd"/></mask><path fill="url(#s)" fill-opacity=".3" fill-rule="evenodd" d="m971.269 693.881 142.341-373.774 3.03 132.451" clip-rule="evenodd"/><path fill="#192D62" d="m1113.61 320.107 1-.023-1.93-.333.93.356Zm-141.407 374.13 142.347-373.774-1.87-.712-142.346 373.774 1.869.712ZM1112.61 320.13l3.03 132.451 2-.046-3.03-132.451-2 .046Z" mask="url(#t)"/></g><path stroke="url(#u)" stroke-linecap="round" stroke-linejoin="round" stroke-miterlimit="22.926" d="m1050.23 164.212 63.27 156.068"/><g filter="url(#v)"><circle cx="621" cy="506" r="1" fill="#501850"/></g><g filter="url(#w)" opacity=".6"><ellipse cx="1246.86" cy="230.01" fill="#5C11B5" fill-opacity=".3" rx="108.649" ry="98.442" shape-rendering="crispEdges"/></g><g filter="url(#x)"><ellipse cx="663.976" cy="288.404" fill="#501850" rx="1.254" ry=".76"/></g><g filter="url(#y)" opacity=".5"><ellipse cx="1307.93" cy="447.278" fill="#7B157B" rx=".835" ry=".76"/></g><g filter="url(#z)"><ellipse cx="1163.84" cy="408.52" fill="#7B157B" rx=".836" ry="1.52"/></g><g filter="url(#A)"><ellipse cx="653.608" cy="163.553" fill="#7B157B" rx=".608" ry=".553"/></g><g filter="url(#B)"><ellipse cx="1279.51" cy="494.281" fill="#4B37C7" rx="2.507" ry="2.28"/></g><g filter="url(#C)"><ellipse cx="882.418" cy="347.38" fill="#4B37C7" rx=".418" ry=".38"/></g><g filter="url(#D)" opacity=".8"><ellipse cx="1291.09" cy="165.901" fill="#4B37C7" rx="2.089" ry="1.9"/></g><path fill="url(#E)" d="M0 0h215.804v75.392H0z" opacity=".6" transform="matrix(.99856 .0537 -.06487 .9979 866.89 249)"/><g filter="url(#F)"><ellipse cx="665.229" cy="629.76" fill="#5744CC" rx=".835" ry=".76"/></g><g filter="url(#G)"><circle cx="898" cy="463" r="1" fill="#5744CC"/></g><g filter="url(#H)"><ellipse cx="1395.24" cy="336.13" fill="#5744CC" rx="1.243" ry="1.13"/></g><g filter="url(#I)" opacity=".5"><ellipse cx="796.443" cy="347.696" fill="#5744CC" rx=".835" ry=".76"/></g><g filter="url(#J)"><circle cx="802.616" cy="116.616" r=".616" fill="#5744CC"/></g></g><defs><filter id="c" width="17.149" height="17.225" x="93.051" y="630.336" color-interpolation-filters="sRGB" filterUnits="userSpaceOnUse"><feFlood flood-opacity="0" result="BackgroundImageFix"/><feColorMatrix in="SourceAlpha" result="hardAlpha" values="0 0 0 0 0 0 0 0 0 0 0 0 0 0 0 0 0 0 127 0"/><feMorphology in="SourceAlpha" operator="dilate" radius="2" result="effect1_dropShadow_2_471"/><feOffset/><feGaussianBlur stdDeviation="3"/><feComposite in2="hardAlpha" operator="out"/><feColorMatrix values="0 0 0 0 0.725 0 0 0 0 0.0845833 0 0 0 0 0.725 0 0 0 1 0"/><feBlend in2="BackgroundImageFix" result="effect1_dropShadow_2_471"/><feBlend in="SourceGraphic" in2="effect1_dropShadow_2_471" result="shape"/></filter><filter id="d" width="17.149" height="18.45" x="121.783" y="575.207" color-interpolation-filters="sRGB" filterUnits="userSpaceOnUse"><feFlood flood-opacity="0" result="BackgroundImageFix"/><feColorMatrix in="SourceAlpha" result="hardAlpha" values="0 0 0 0 0 0 0 0 0 0 0 0 0 0 0 0 0 0 127 0"/><feMorphology in="SourceAlpha" operator="dilate" radius="2" result="effect1_dropShadow_2_471"/><feOffset/><feGaussianBlur stdDeviation="3"/><feComposite in2="hardAlpha" operator="out"/><feColorMatrix values="0 0 0 0 0.725 0 0 0 0 0.0845833 0 0 0 0 0.725 0 0 0 1 0"/><feBlend in2="BackgroundImageFix" result="effect1_dropShadow_2_471"/><feBlend in="SourceGraphic" in2="effect1_dropShadow_2_471" result="shape"/></filter><filter id="e" width="17.149" height="17.225" x="140.172" y="615.022" color-interpolation-filters="sRGB" filterUnits="userSpaceOnUse"><feFlood flood-opacity="0" result="BackgroundImageFix"/><feColorMatrix in="SourceAlpha" result="hardAlpha" values="0 0 0 0 0 0 0 0 0 0 0 0 0 0 0 0 0 0 127 0"/><feMorphology in="SourceAlpha" operator="dilate" radius="2" result="effect1_dropShadow_2_471"/><feOffset/><feGaussianBlur stdDeviation="3"/><feComposite in2="hardAlpha" operator="out"/><feColorMatrix values="0 0 0 0 0.409722 0 0 0 0 0.333333 0 0 0 0 1 0 0 0 1 0"/><feBlend in2="BackgroundImageFix" result="effect1_dropShadow_2_471"/><feBlend in="SourceGraphic" in2="effect1_dropShadow_2_471" result="shape"/></filter><filter id="v" width="30" height="30" x="606" y="491" color-interpolation-filters="sRGB" filterUnits="userSpaceOnUse"><feFlood flood-opacity="0" result="BackgroundImageFix"/><feColorMatrix in="SourceAlpha" result="hardAlpha" values="0 0 0 0 0 0 0 0 0 0 0 0 0 0 0 0 0 0 127 0"/><feMorphology in="SourceAlpha" operator="dilate" radius="4" result="effect1_dropShadow_2_471"/><feOffset/><feGaussianBlur stdDeviation="5"/><feComposite in2="hardAlpha" operator="out"/><feColorMatrix values="0 0 0 0 0.396078 0 0 0 0 0.113725 0 0 0 0 0.333333 0 0 0 1 0"/><feBlend in2="BackgroundImageFix" result="effect1_dropShadow_2_471"/><feBlend in="SourceGraphic" in2="effect1_dropShadow_2_471" result="shape"/></filter><filter id="w" width="1117.3" height="1096.88" x="688.214" y="-318.432" color-interpolation-filters="sRGB" filterUnits="userSpaceOnUse"><feFlood flood-opacity="0" result="BackgroundImageFix"/><feColorMatrix in="SourceAlpha" result="hardAlpha" values="0 0 0 0 0 0 0 0 0 0 0 0 0 0 0 0 0 0 127 0"/><feMorphology in="SourceAlpha" operator="dilate" radius="200" result="effect1_dropShadow_2_471"/><feOffset/><feGaussianBlur stdDeviation="125"/><feComposite in2="hardAlpha" operator="out"/><feColorMatrix values="0 0 0 0 0.376418 0 0 0 0 0.0679861 0 0 0 0 0.741667 0 0 0 0.3 0"/><feBlend in2="BackgroundImageFix" result="effect1_dropShadow_2_471"/><feBlend in="SourceGraphic" in2="effect1_dropShadow_2_471" result="shape"/></filter><filter id="x" width="30.507" height="29.52" x="648.722" y="273.643" color-interpolation-filters="sRGB" filterUnits="userSpaceOnUse"><feFlood flood-opacity="0" result="BackgroundImageFix"/><feColorMatrix in="SourceAlpha" result="hardAlpha" values="0 0 0 0 0 0 0 0 0 0 0 0 0 0 0 0 0 0 127 0"/><feMorphology in="SourceAlpha" operator="dilate" radius="4" result="effect1_dropShadow_2_471"/><feOffset/><feGaussianBlur stdDeviation="5"/><feComposite in2="hardAlpha" operator="out"/><feColorMatrix values="0 0 0 0 0.396078 0 0 0 0 0.113725 0 0 0 0 0.333333 0 0 0 1 0"/><feBlend in2="BackgroundImageFix" result="effect1_dropShadow_2_471"/><feBlend in="SourceGraphic" in2="effect1_dropShadow_2_471" result="shape"/></filter><filter id="y" width="17.67" height="17.519" x="1299.09" y="438.519" color-interpolation-filters="sRGB" filterUnits="userSpaceOnUse"><feFlood flood-opacity="0" result="BackgroundImageFix"/><feColorMatrix in="SourceAlpha" result="hardAlpha" values="0 0 0 0 0 0 0 0 0 0 0 0 0 0 0 0 0 0 127 0"/><feMorphology in="SourceAlpha" operator="dilate" radius="2" result="effect1_dropShadow_2_471"/><feOffset/><feGaussianBlur stdDeviation="3"/><feComposite in2="hardAlpha" operator="out"/><feColorMatrix values="0 0 0 0 0.725 0 0 0 0 0.0845833 0 0 0 0 0.725 0 0 0 1 0"/><feBlend in2="BackgroundImageFix" result="effect1_dropShadow_2_471"/><feBlend in="SourceGraphic" in2="effect1_dropShadow_2_471" result="shape"/></filter><filter id="z" width="17.672" height="19.041" x="1155" y="399" color-interpolation-filters="sRGB" filterUnits="userSpaceOnUse"><feFlood flood-opacity="0" result="BackgroundImageFix"/><feColorMatrix in="SourceAlpha" result="hardAlpha" values="0 0 0 0 0 0 0 0 0 0 0 0 0 0 0 0 0 0 127 0"/><feMorphology in="SourceAlpha" operator="dilate" radius="2" result="effect1_dropShadow_2_471"/><feOffset/><feGaussianBlur stdDeviation="3"/><feComposite in2="hardAlpha" operator="out"/><feColorMatrix values="0 0 0 0 0.725 0 0 0 0 0.0845833 0 0 0 0 0.725 0 0 0 1 0"/><feBlend in2="BackgroundImageFix" result="effect1_dropShadow_2_471"/><feBlend in="SourceGraphic" in2="effect1_dropShadow_2_471" result="shape"/></filter><filter id="A" width="17.216" height="17.106" x="645" y="155" color-interpolation-filters="sRGB" filterUnits="userSpaceOnUse"><feFlood flood-opacity="0" result="BackgroundImageFix"/><feColorMatrix in="SourceAlpha" result="hardAlpha" values="0 0 0 0 0 0 0 0 0 0 0 0 0 0 0 0 0 0 127 0"/><feMorphology in="SourceAlpha" operator="dilate" radius="2" result="effect1_dropShadow_2_471"/><feOffset/><feGaussianBlur stdDeviation="3"/><feComposite in2="hardAlpha" operator="out"/><feColorMatrix values="0 0 0 0 0.725 0 0 0 0 0.0845833 0 0 0 0 0.725 0 0 0 1 0"/><feBlend in2="BackgroundImageFix" result="effect1_dropShadow_2_471"/><feBlend in="SourceGraphic" in2="effect1_dropShadow_2_471" result="shape"/></filter><filter id="B" width="21.015" height="20.561" x="1269" y="484" color-interpolation-filters="sRGB" filterUnits="userSpaceOnUse"><feFlood flood-opacity="0" result="BackgroundImageFix"/><feColorMatrix in="SourceAlpha" result="hardAlpha" values="0 0 0 0 0 0 0 0 0 0 0 0 0 0 0 0 0 0 127 0"/><feMorphology in="SourceAlpha" operator="dilate" radius="2" result="effect1_dropShadow_2_471"/><feOffset/><feGaussianBlur stdDeviation="3"/><feComposite in2="hardAlpha" operator="out"/><feColorMatrix values="0 0 0 0 0.409722 0 0 0 0 0.333333 0 0 0 0 1 0 0 0 1 0"/><feBlend in2="BackgroundImageFix" result="effect1_dropShadow_2_471"/><feBlend in="SourceGraphic" in2="effect1_dropShadow_2_471" result="shape"/></filter><filter id="C" width="16.835" height="16.761" x="874" y="339" color-interpolation-filters="sRGB" filterUnits="userSpaceOnUse"><feFlood flood-opacity="0" result="BackgroundImageFix"/><feColorMatrix in="SourceAlpha" result="hardAlpha" values="0 0 0 0 0 0 0 0 0 0 0 0 0 0 0 0 0 0 127 0"/><feMorphology in="SourceAlpha" operator="dilate" radius="2" result="effect1_dropShadow_2_471"/><feOffset/><feGaussianBlur stdDeviation="3"/><feComposite in2="hardAlpha" operator="out"/><feColorMatrix values="0 0 0 0 0.409722 0 0 0 0 0.333333 0 0 0 0 1 0 0 0 1 0"/><feBlend in2="BackgroundImageFix" result="effect1_dropShadow_2_471"/><feBlend in="SourceGraphic" in2="effect1_dropShadow_2_471" result="shape"/></filter><filter id="D" width="20.179" height="19.801" x="1281" y="156" color-interpolation-filters="sRGB" filterUnits="userSpaceOnUse"><feFlood flood-opacity="0" result="BackgroundImageFix"/><feColorMatrix in="SourceAlpha" result="hardAlpha" values="0 0 0 0 0 0 0 0 0 0 0 0 0 0 0 0 0 0 127 0"/><feMorphology in="SourceAlpha" operator="dilate" radius="2" result="effect1_dropShadow_2_471"/><feOffset/><feGaussianBlur stdDeviation="3"/><feComposite in2="hardAlpha" operator="out"/><feColorMatrix values="0 0 0 0 0.409722 0 0 0 0 0.333333 0 0 0 0 1 0 0 0 1 0"/><feBlend in2="BackgroundImageFix" result="effect1_dropShadow_2_471"/><feBlend in="SourceGraphic" in2="effect1_dropShadow_2_471" result="shape"/></filter><filter id="F" width="17.67" height="17.519" x="656.394" y="621" color-interpolation-filters="sRGB" filterUnits="userSpaceOnUse"><feFlood flood-opacity="0" result="BackgroundImageFix"/><feColorMatrix in="SourceAlpha" result="hardAlpha" values="0 0 0 0 0 0 0 0 0 0 0 0 0 0 0 0 0 0 127 0"/><feMorphology in="SourceAlpha" operator="dilate" radius="2" result="effect1_dropShadow_2_471"/><feOffset/><feGaussianBlur stdDeviation="3"/><feComposite in2="hardAlpha" operator="out"/><feColorMatrix values="0 0 0 0 0.409722 0 0 0 0 0.333333 0 0 0 0 1 0 0 0 1 0"/><feBlend in2="BackgroundImageFix" result="effect1_dropShadow_2_471"/><feBlend in="SourceGraphic" in2="effect1_dropShadow_2_471" result="shape"/></filter><filter id="G" width="18" height="18" x="889" y="454" color-interpolation-filters="sRGB" filterUnits="userSpaceOnUse"><feFlood flood-opacity="0" result="BackgroundImageFix"/><feColorMatrix in="SourceAlpha" result="hardAlpha" values="0 0 0 0 0 0 0 0 0 0 0 0 0 0 0 0 0 0 127 0"/><feMorphology in="SourceAlpha" operator="dilate" radius="2" result="effect1_dropShadow_2_471"/><feOffset/><feGaussianBlur stdDeviation="3"/><feComposite in2="hardAlpha" operator="out"/><feColorMatrix values="0 0 0 0 0.409722 0 0 0 0 0.333333 0 0 0 0 1 0 0 0 1 0"/><feBlend in2="BackgroundImageFix" result="effect1_dropShadow_2_471"/><feBlend in="SourceGraphic" in2="effect1_dropShadow_2_471" result="shape"/></filter><filter id="H" width="18.485" height="18.261" x="1386" y="327" color-interpolation-filters="sRGB" filterUnits="userSpaceOnUse"><feFlood flood-opacity="0" result="BackgroundImageFix"/><feColorMatrix in="SourceAlpha" result="hardAlpha" values="0 0 0 0 0 0 0 0 0 0 0 0 0 0 0 0 0 0 127 0"/><feMorphology in="SourceAlpha" operator="dilate" radius="2" result="effect1_dropShadow_2_471"/><feOffset/><feGaussianBlur stdDeviation="3"/><feComposite in2="hardAlpha" operator="out"/><feColorMatrix values="0 0 0 0 0.409722 0 0 0 0 0.333333 0 0 0 0 1 0 0 0 1 0"/><feBlend in2="BackgroundImageFix" result="effect1_dropShadow_2_471"/><feBlend in="SourceGraphic" in2="effect1_dropShadow_2_471" result="shape"/></filter><filter id="I" width="17.67" height="17.519" x="787.608" y="338.937" color-interpolation-filters="sRGB" filterUnits="userSpaceOnUse"><feFlood flood-opacity="0" result="BackgroundImageFix"/><feColorMatrix in="SourceAlpha" result="hardAlpha" values="0 0 0 0 0 0 0 0 0 0 0 0 0 0 0 0 0 0 127 0"/><feMorphology in="SourceAlpha" operator="dilate" radius="2" result="effect1_dropShadow_2_471"/><feOffset/><feGaussianBlur stdDeviation="3"/><feComposite in2="hardAlpha" operator="out"/><feColorMatrix values="0 0 0 0 0.409722 0 0 0 0 0.333333 0 0 0 0 1 0 0 0 1 0"/><feBlend in2="BackgroundImageFix" result="effect1_dropShadow_2_471"/><feBlend in="SourceGraphic" in2="effect1_dropShadow_2_471" result="shape"/></filter><filter id="J" width="17.232" height="17.232" x="794" y="108" color-interpolation-filters="sRGB" filterUnits="userSpaceOnUse"><feFlood flood-opacity="0" result="BackgroundImageFix"/><feColorMatrix in="SourceAlpha" result="hardAlpha" values="0 0 0 0 0 0 0 0 0 0 0 0 0 0 0 0 0 0 127 0"/><feMorphology in="SourceAlpha" operator="dilate" radius="2" result="effect1_dropShadow_2_471"/><feOffset/><feGaussianBlur stdDeviation="3"/><feComposite in2="hardAlpha" operator="out"/><feColorMatrix values="0 0 0 0 0.409722 0 0 0 0 0.333333 0 0 0 0 1 0 0 0 1 0"/><feBlend in2="BackgroundImageFix" result="effect1_dropShadow_2_471"/><feBlend in="SourceGraphic" in2="effect1_dropShadow_2_471" result="shape"/></filter><linearGradient id="b" x1="-2.64" x2="47.562" y1="507.251" y2="647.719" gradientUnits="userSpaceOnUse"><stop stop-color="#3C43DE"/><stop offset="1" stop-color="#565CEB" stop-opacity="0"/></linearGradient><linearGradient id="j" x1="1180.47" x2="922.402" y1="260.638" y2="464.536" gradientUnits="userSpaceOnUse"><stop stop-color="#3C43DE" stop-opacity=".63"/><stop offset="1" stop-color="#565CEB" stop-opacity="0"/></linearGradient><linearGradient id="m" x1="1013.85" x2="755.585" y1="609.473" y2="623.377" gradientUnits="userSpaceOnUse"><stop stop-color="#D04AFF" stop-opacity=".48"/><stop offset=".766" stop-color="#CF48FF" stop-opacity="0"/></linearGradient><linearGradient id="o" x1="787.121" x2="488.583" y1="240.753" y2="17.954" gradientUnits="userSpaceOnUse"><stop stop-color="#77368E"/><stop offset="1" stop-color="#77368E" stop-opacity="0"/></linearGradient><linearGradient id="p" x1="787.121" x2="600.821" y1="240.752" y2="97.02" gradientUnits="userSpaceOnUse"><stop stop-color="#77368E"/><stop offset="1" stop-color="#77368E" stop-opacity="0"/></linearGradient><linearGradient id="q" x1="1368.13" x2="912.755" y1="275.303" y2="359.266" gradientUnits="userSpaceOnUse"><stop stop-color="#D04AFF" stop-opacity=".48"/><stop offset=".766" stop-color="#CF48FF" stop-opacity="0"/></linearGradient><linearGradient id="s" x1="989.303" x2="1116.25" y1="693.881" y2="463.7" gradientUnits="userSpaceOnUse"><stop stop-color="#3C43DE"/><stop offset="1" stop-color="#565CEB" stop-opacity="0"/></linearGradient><linearGradient id="u" x1="1081.87" x2="1081.87" y1="164.212" y2="320.28" gradientUnits="userSpaceOnUse"><stop stop-color="#7C4DAD"/><stop offset="1" stop-color="#7C4DAD" stop-opacity="0"/></linearGradient><radialGradient id="g" cx="0" cy="0" r="1" gradientTransform="matrix(0 310.045 -295.718 0 1258 546.751)" gradientUnits="userSpaceOnUse"><stop stop-color="#5C0D78" stop-opacity=".54"/><stop offset="1" stop-color="#1E0A2F" stop-opacity=".33"/></radialGradient><radialGradient id="i" cx="0" cy="0" r="1" gradientTransform="rotate(91.139 328.724 636.785) scale(437.544 526.321)" gradientUnits="userSpaceOnUse"><stop stop-color="#B571FF"/><stop offset="1" stop-color="#593085" stop-opacity="0"/></radialGradient><pattern id="h" width="1" height="1" patternContentUnits="objectBoundingBox"><use xlink:href="#K" transform="matrix(.00125 0 0 .00206 0 -.05)"/></pattern><pattern id="E" width="1" height="1" patternContentUnits="objectBoundingBox"><use xlink:href="#L" transform="matrix(.00125 0 0 .00358 0 -.053)"/></pattern></defs></svg>