<svg xmlns="http://www.w3.org/2000/svg" width="38" height="24" fill="none" viewBox="0 0 38 24"><path fill="#545472" fill-rule="evenodd" d="M1.434 0a1 1 0 0 0-1 1v22a1 1 0 0 0 1 1h35a1 1 0 0 0 1-1V1a1 1 0 0 0-1-1h-35Zm2 9a1 1 0 0 1 1-1h6a1 1 0 0 1 1 1v6a1 1 0 0 1-1 1h-6a1 1 0 0 1-1-1V9Zm11.503 1.087c.181 0 .346.025.495.075.152.05.282.118.39.203a.908.908 0 0 1 .25.303.802.802 0 0 1 0 .732.924.924 0 0 1-.25.298 1.26 1.26 0 0 1-.39.203c-.149.05-.314.075-.495.075h-1.503V9h2.448v.661h-1.641v.426h.696Zm-.028 1.299a.487.487 0 0 0 .317-.104.322.322 0 0 0 .128-.25.309.309 0 0 0-.128-.246.474.474 0 0 0-.317-.109h-.668v.709h.668ZM16.662 9h2.504v.661h-1.697v.473h1.557v.661H17.47v.52h1.752v.661h-2.56V9Zm6.034 2.976V9H20.22l-.194 1.937a.49.49 0 0 1-.156.33.45.45 0 0 1-.317.119h-.112v.59a1.034 1.034 0 0 0 .206.019c.041.003.084.005.128.005.293 0 .53-.079.712-.236.182-.16.288-.39.318-.685l.139-1.418h.946v2.315h.806Zm1.472 0h-.807V9h.807v1.276L25.225 9h.918l-1.235 1.465 1.264 1.449L27.398 9h.834l1.252 2.976h-.835l-.222-.567h-1.224l-.223.567h-1.67l-1.14-1.323v1.323Zm3.647-2.15.39.993h-.78l.39-.992ZM31.152 9c.182 0 .35.027.501.08a1.156 1.156 0 0 1 .657.538.856.856 0 0 1 .094.398.856.856 0 0 1-.094.397c-.063.122-.15.231-.262.326a1.293 1.293 0 0 1-.395.217c-.152.05-.319.075-.5.075h-.557v.945h-.807V9h1.363Zm0 1.37a.487.487 0 0 0 .318-.104.322.322 0 0 0 .128-.25.309.309 0 0 0-.128-.246.473.473 0 0 0-.318-.109h-.556v.71h.556Zm2.474 1.606h.807V9.661h1.001V9h-2.81v.661h1.002v2.315Zm-19.75 1.973V13h-.442v1.595h.396l.777-.95v.95h.442V13h-.396l-.777.95Zm2.82.646V13.43h-.412v.418h-.487v-.418h-.412v1.165h.412v-.418h.487v.418h.411Zm.183-1.165h1.234v.33h-.411v.835h-.412v-.836h-.41v-.329Zm2.599.96a.491.491 0 0 0 .082-.137l-.426-.025a.143.143 0 0 1-.049.038.284.284 0 0 1-.165.038.317.317 0 0 1-.192-.056.278.278 0 0 1-.097-.121h.96l.002-.016.004-.022.006-.036a.553.553 0 0 0-.052-.289.632.632 0 0 0-.363-.316.818.818 0 0 0-.268-.043c-.1 0-.193.016-.28.048a.706.706 0 0 0-.225.13.619.619 0 0 0-.156.192.538.538 0 0 0 0 .479.685.685 0 0 0 .375.32.894.894 0 0 0 .515.015.604.604 0 0 0 .329-.2Zm-.75-.61a.307.307 0 0 1 .192-.058c.078 0 .14.019.19.058.05.037.084.08.1.131h-.579a.27.27 0 0 1 .098-.131Zm1.867-.362a.691.691 0 0 1 .457.17.565.565 0 0 1 .198.425.592.592 0 0 1-.198.428.67.67 0 0 1-.457.167.664.664 0 0 1-.256-.051.492.492 0 0 1-.094-.05V15h-.412v-1.57h.305l.061.114a.543.543 0 0 1 .107-.063.935.935 0 0 1 .124-.043.617.617 0 0 1 .165-.02Zm.244.595a.25.25 0 0 0-.088-.2.314.314 0 0 0-.217-.079.314.314 0 0 0-.216.079.25.25 0 0 0-.088.2c0 .082.029.15.088.202a.32.32 0 0 0 .216.076.32.32 0 0 0 .216-.076.258.258 0 0 0 .089-.202Zm1.553.582h.412V13.43h-.412v.418h-.487v-.418h-.411v1.165h.41v-.418h.488v.418Zm2.012-.342a.49.49 0 0 1-.082.137.604.604 0 0 1-.33.2.893.893 0 0 1-.514-.015.79.79 0 0 1-.223-.13.686.686 0 0 1-.152-.192.537.537 0 0 1-.055-.24c0-.086.019-.166.055-.238a.706.706 0 0 1 .38-.321.806.806 0 0 1 .281-.049c.096 0 .185.014.268.043a.632.632 0 0 1 .363.317.553.553 0 0 1 .052.288l-.006.036a1.83 1.83 0 0 1-.006.038h-.96a.277.277 0 0 0 .097.121.319.319 0 0 0 .192.056.283.283 0 0 0 .165-.038.143.143 0 0 0 .049-.038l.426.025Zm-.64-.531a.307.307 0 0 0-.192.058.268.268 0 0 0-.097.131h.579a.264.264 0 0 0-.1-.131.294.294 0 0 0-.19-.058Zm2.01-.292H24.54v.33h.412v.835h.411v-.836h.411v-.329Zm1.843-.43v1.595h-.442v-1.24h-.746v1.24h-.442V13h1.63Zm1.177.44a.893.893 0 0 0-.475-.005.565.565 0 0 0-.183.082.465.465 0 0 0-.183.281l.411.025a.136.136 0 0 1 .034-.056.247.247 0 0 1 .055-.038.194.194 0 0 1 .094-.02c.053 0 .096.015.131.045s.052.075.052.132c-.16 0-.295.01-.402.03a.842.842 0 0 0-.256.082.333.333 0 0 0-.14.123.317.317 0 0 0-.04.157c0 .097.04.176.122.239.081.06.198.09.35.09a.701.701 0 0 0 .412-.126l.06.114h.305v-.709a.437.437 0 0 0-.164-.344.533.533 0 0 0-.183-.101Zm-.137.856a.281.281 0 0 1-.186.058.21.21 0 0 1-.125-.032.099.099 0 0 1-.043-.081c0-.022.005-.043.016-.061a.144.144 0 0 1 .064-.048.513.513 0 0 1 .13-.03c.057-.01.13-.013.217-.013v.05a.195.195 0 0 1-.073.157Zm1.536-.878a.691.691 0 0 1 .457.17.565.565 0 0 1 .198.425.592.592 0 0 1-.198.428.67.67 0 0 1-.457.167.663.663 0 0 1-.256-.051.492.492 0 0 1-.094-.05V15h-.411v-1.57h.304l.061.114a.54.54 0 0 1 .107-.063.93.93 0 0 1 .125-.043.617.617 0 0 1 .164-.02Zm.244.595a.25.25 0 0 0-.088-.2.314.314 0 0 0-.217-.079.314.314 0 0 0-.216.079.25.25 0 0 0-.088.2c0 .082.03.15.088.202a.32.32 0 0 0 .216.076.32.32 0 0 0 .217-.076.258.258 0 0 0 .088-.202Zm.649-.238a.521.521 0 0 0-.055.238.537.537 0 0 0 .21.433.77.77 0 0 0 .506.174.77.77 0 0 0 .506-.175.618.618 0 0 0 .152-.192.514.514 0 0 0 0-.478.58.58 0 0 0-.152-.193.7.7 0 0 0-.229-.129.78.78 0 0 0-.277-.048c-.1 0-.193.016-.28.048a.706.706 0 0 0-.381.322Zm.877.025a.27.27 0 0 1 .089.213c0 .09-.03.16-.089.212a.314.314 0 0 1-.216.079.314.314 0 0 1-.216-.079.27.27 0 0 1-.089-.212c0-.09.03-.16.089-.213a.314.314 0 0 1 .216-.079c.085 0 .157.027.216.079Zm1.964.795h-.411v-.836h-.32l-.046.456a.402.402 0 0 1-.146.291.56.56 0 0 1-.357.102.368.368 0 0 1-.051-.003.225.225 0 0 1-.07-.01v-.291h.045c.061 0 .105-.011.131-.033.026-.024.044-.068.052-.132l.076-.709h1.097v1.165Zm1.206-.777a.59.59 0 0 0-.201-.033h-.29v-.355h-.411v1.165h.7a.558.558 0 0 0 .36-.116.399.399 0 0 0 .104-.13.33.33 0 0 0 .04-.16.371.371 0 0 0-.143-.286.485.485 0 0 0-.16-.085Zm-.156.466a.196.196 0 0 1-.122.032h-.213v-.253h.213c.053 0 .094.012.122.036.03.022.046.052.046.09 0 .04-.015.07-.046.095ZM6.917 12.52h-.773l.558-.555-.505-.503h.714v-.71l.509.507.564-.563v.776h.697l-.514.513.564.562h-.774v.726l-.535-.533-.505.502v-.722Zm2.35.562v1.354h-1.31v-.382L7.008 15l-.927-.924.25-.248H5.02V12.52h.385l-.972-.968.927-.923.24.238V9.574h1.31v.345L7.833 9l.927.924-.244.243H9.88v1.306h-.374l.928.925-.927.924-.24-.239Z" clip-rule="evenodd"/></svg>