<svg xmlns="http://www.w3.org/2000/svg" width="38" height="24" fill="none" viewBox="0 0 38 24"><path fill="#545472" fill-rule="evenodd" d="M1.434 0a1 1 0 0 0-1 1v22a1 1 0 0 0 1 1h35a1 1 0 0 0 1-1V1a1 1 0 0 0-1-1h-35ZM19.8 3l-1.997 1.99v-.747h-2.84v2.805l-.52-.517-2.008 2.001 2.105 2.097h-.834v2.83h2.838l-.54.54 2.008 2 2.056-2.048v.83h2.84v-2.934l.519.517 2.008-2.002-2.011-2.004h.81v-2.83H21.28l.529-.526L19.799 3Zm.722 6.47 1.223 1.218h-1.677v1.572l-1.16-1.156-1.094 1.09v-1.565H16.14l1.209-1.203-1.094-1.09h1.548V6.8l1.1 1.097 1.223-1.218v1.68h1.51L20.522 9.47Zm-9.79 8.617c.158 0 .3.025.428.075.132.05.244.118.337.203a.89.89 0 0 1 .216.303.905.905 0 0 1 0 .732.905.905 0 0 1-.216.298 1.048 1.048 0 0 1-.337.203 1.16 1.16 0 0 1-.427.075H9.434V17h2.115v.662H10.13v.425h.6Zm-.023 1.299c.109 0 .2-.035.274-.104a.342.342 0 0 0 .11-.25.327.327 0 0 0-.11-.246.375.375 0 0 0-.274-.109h-.577v.709h.577ZM12.222 17h2.162v.662h-1.466v.472h1.346v.661h-1.346v.52h1.514v.661h-2.21V17Zm5.211 2.976V17h-2.138l-.168 1.937a.525.525 0 0 1-.135.33.36.36 0 0 1-.274.119h-.096v.59a.751.751 0 0 0 .178.019c.035.003.072.005.11.005a.83.83 0 0 0 .616-.236c.157-.16.248-.39.274-.685l.12-1.418h.816v2.315h.697Zm1.271 0h-.696V17h.696v1.276L19.617 17h.793l-1.067 1.465 1.092 1.449L21.494 17h.72l1.082 2.976h-.721l-.192-.566h-1.058l-.192.566H19.69l-.985-1.322v1.322Zm3.15-2.15.336.993h-.673l.337-.992ZM24.736 17c.157 0 .301.027.433.08a.96.96 0 0 1 .34.218.994.994 0 0 1 .227 1.115 1.05 1.05 0 0 1-.226.326c-.096.091-.21.163-.341.217-.132.05-.276.076-.433.076h-.48v.944h-.697V17h1.177Zm0 1.37c.11 0 .2-.035.274-.104a.341.341 0 0 0 .11-.25.326.326 0 0 0-.11-.246.375.375 0 0 0-.274-.108h-.48v.708h.48Zm2.137 1.606h.696v-2.314h.865V17h-2.426v.662h.865v2.314Z" clip-rule="evenodd"/></svg>