<svg xmlns="http://www.w3.org/2000/svg" width="96" height="20" fill="none" viewBox="0 0 96 20"><path fill="#3F0F72" d="M96 9.09c0 .896-.162 1.741-.487 2.537a6.476 6.476 0 0 1-1.426 2.134 6.614 6.614 0 0 1-2.13 1.436c-.79.332-1.62.5-2.486.5a6.464 6.464 0 0 1-4.636-1.935 6.39 6.39 0 0 1-1.42-2.126 6.677 6.677 0 0 1-.484-2.546c0-.901.162-1.75.484-2.546a6.46 6.46 0 0 1 1.42-2.143 6.46 6.46 0 0 1 2.121-1.427 6.53 6.53 0 0 1 2.515-.49c.878 0 1.71.164 2.5.49A6.438 6.438 0 0 1 94.088 4.4a6.685 6.685 0 0 1 1.425 2.155C95.838 7.358 96 8.2 96 9.09Zm-54.476.053a9.889 9.889 0 0 1-.108-.808c-.046-.367-.086-.672-.117-.913a6.621 6.621 0 0 1-.214.86 7.291 7.291 0 0 1-.348.878l-2.955 6.202H37.3l-2.96-6.34a9.57 9.57 0 0 1-.602-1.6c-.006.265-.026.54-.063.831-.037.29-.091.593-.162.907L32.2 15.362h-1.83l2.775-12.598h.356l3.37 7.421c.054.123.14.335.254.626.114.293.25.654.413 1.083.117-.361.302-.82.553-1.374.066-.15.117-.264.148-.344l3.293-7.412h.353l2.838 12.598h-1.848l-1.351-6.22Zm13.923 6.219L54.06 12.12h-4.847l-1.42 3.242h-2.086l5.699-12.598h.444l5.694 12.598h-2.098Zm-5.497-4.95h3.41L52.105 7.54a11.02 11.02 0 0 1-.225-.631 14.56 14.56 0 0 1-.234-.796 9.347 9.347 0 0 1-.214.769c-.074.238-.15.458-.228.658l-1.254 2.87Zm8.744 4.95V2.764h.497l7.275 7.204a17.808 17.808 0 0 1 1.329 1.53V2.766h1.83v12.596h-.498l-7.425-7.347c-.21-.214-.416-.437-.613-.672a9.648 9.648 0 0 1-.565-.74v8.759h-1.83Zm21.82 0-1.386-3.242H74.28l-1.42 3.242h-2.087l5.7-12.598h.444l5.694 12.598h-2.099Zm-5.498-4.95h3.41L77.172 7.54a11.097 11.097 0 0 1-.225-.631 14.471 14.471 0 0 1-.234-.796 10.01 10.01 0 0 1-.214.769 10.57 10.57 0 0 1-.228.658l-1.255 2.871ZM93.93 9.09c0-.637-.114-1.242-.34-1.815a4.727 4.727 0 0 0-.971-1.53 4.299 4.299 0 0 0-1.432-1.018 4.246 4.246 0 0 0-1.716-.358 4.297 4.297 0 0 0-3.167 1.377c-.422.44-.747.948-.97 1.52a4.99 4.99 0 0 0-.333 1.824c0 .637.11 1.24.333 1.806.223.566.548 1.074.97 1.52a4.27 4.27 0 0 0 3.168 1.377 4.2 4.2 0 0 0 1.698-.352 4.458 4.458 0 0 0 1.449-1.024c.422-.447.746-.955.972-1.524.225-.573.34-1.172.34-1.803Z"/><path fill="#3F0F72" fill-rule="evenodd" d="M12.128 5.787 9.093 0 0 .038l8.325 13.28 3.804 6.069 3.803-6.069L24.256.038 15.164 0l-3.036 5.787ZM.576 2.092l4.457 7.095-4.457 8.108V2.092Zm23.117 0-4.456 7.095 4.456 8.108V2.092Z" clip-rule="evenodd"/></svg>