<svg xmlns="http://www.w3.org/2000/svg" width="38" height="25" fill="none" viewBox="0 0 38 25"><path fill="#545472" d="M10.188 10.439c-.696 0-1.23.223-1.23.223l-.147.875s.44-.179 1.107-.179c.378 0 .654.042.654.35 0 .186-.033.255-.033.255s-.298-.024-.437-.024c-.877 0-1.8.373-1.8 1.504 0 .89.605 1.094.98 1.094.717 0 1.026-.465 1.041-.466l-.033.388h.894l.398-2.795c0-1.187-1.035-1.225-1.394-1.225Zm-.501 3.247c-.315 0-.397-.24-.397-.383 0-.278.15-.612.894-.612.174.001.192.019.221.024.02.171-.106.971-.718.971Zm3.729-2.309c.143 0 .693.045.693.045l.128-.896s-.356-.08-.936-.08c-.751 0-1.513.3-1.513 1.326 0 1.162 1.27 1.044 1.27 1.535 0 .326-.354.353-.628.353-.474 0-.9-.162-.902-.155l-.135.888c.024.007.287.124 1.139.124.228 0 1.535.059 1.535-1.29 0-1.261-1.21-1.012-1.21-1.52 0-.252.197-.33.559-.33Zm2.135.113h.537l.13-.954h-.506l.103-.592H14.8c-.022.021-.599 3.338-.599 3.74 0 .6.336.865.809.86.37-.002.659-.104.76-.133l.128-.863c-.07 0-.172.03-.262.03-.353 0-.392-.188-.37-.327l.285-1.76Zm4.253-5.54h-1.81c-.244.33-.473.679-.68 1.021h3.23a9.647 9.647 0 0 0-.74-1.02Zm14.133 11.483a.519.519 0 0 0-.05-.066.071.071 0 0 0-.028-.017.104.104 0 0 0 .07-.03.088.088 0 0 0 .01-.112.08.08 0 0 0-.042-.033.25.25 0 0 0-.084-.01h-.115v.333h.054v-.141h.031c.019 0 .034.004.042.012a.304.304 0 0 1 .057.077l.03.053h.066l-.041-.066Zm-.12-.12h-.066v-.1h.062c.026 0 .043.002.053.005.01.004.017.01.023.018a.045.045 0 0 1 .008.025.047.047 0 0 1-.017.038c-.011.009-.033.014-.063.014Zm-12.723-9.34h-4.345c-.278.525-.462.923-.514 1.021h5.27a9.611 9.611 0 0 0-.411-1.021ZM7.059 9.63l-1 2.967-.052-2.966H4.526l-.812 4.833h.98l.617-3.644.09 3.644h.7l1.304-3.644-.578 3.644h1.039l.8-4.833H7.06Zm19.582.809c-.697 0-1.23.223-1.23.223l-.147.875s.44-.179 1.106-.179c.378 0 .655.042.655.35 0 .186-.035.255-.035.255s-.297-.024-.437-.024c-.877 0-1.798.373-1.798 1.504 0 .89.605 1.094.98 1.094.715 0 1.024-.465 1.04-.466l-.033.388h.893l.399-2.795c.002-1.187-1.034-1.225-1.393-1.225Zm-.5 3.247c-.315 0-.397-.24-.397-.383 0-.278.151-.612.895-.612.173.001.191.019.22.024.02.171-.107.971-.717.971Zm7.827.333a.277.277 0 0 0-.115-.115.307.307 0 0 0-.418.421.295.295 0 0 0 .114.115.309.309 0 0 0 .42-.421Zm-.042.28a.26.26 0 0 1-.222.13.26.26 0 0 1-.258-.257.24.24 0 0 1 .035-.128.257.257 0 0 1 .445.256Z"/><path fill="#545472" d="M33.807 14.278a.415.415 0 0 0-.05-.066.076.076 0 0 0-.027-.017.102.102 0 0 0 .068-.03.091.091 0 0 0 .026-.064.086.086 0 0 0-.015-.049.094.094 0 0 0-.041-.032.255.255 0 0 0-.085-.01h-.116v.332h.054v-.14h.031c.02 0 .035.003.044.01a.335.335 0 0 1 .056.079l.029.052h.066l-.04-.065Zm-.12-.122h-.064v-.101h.06c.027 0 .044.002.054.005.009.005.017.01.022.018a.049.049 0 0 1-.007.063c-.013.011-.033.015-.064.015Zm-3.597-3.669c-.454 0-.792.62-.792.62l.091-.57h-.946l-.633 3.934h1.042c.296-1.68.35-3.044 1.055-2.795.124-.65.244-.902.378-1.176 0 0-.063-.013-.195-.013Zm2.618-.851-.22 1.358s-.38-.528-.98-.528c-.93 0-1.705 1.122-1.705 2.41 0 .832.414 1.646 1.258 1.646.609 0 .946-.424.946-.424l-.044.362h.987l.776-4.826-1.018.002Zm-1.287 3.9c-.366 0-.537-.307-.537-.788 0-.787.353-1.306.8-1.306.364 0 .552.251.552.842 0 .536-.266 1.252-.815 1.252Z"/><path fill="#545472" d="M36.478 0H1.246A.956.956 0 0 0 .29.956v22.16c0 .528.427.956.956.956h35.232a.956.956 0 0 0 .956-.956V.956A.956.956 0 0 0 36.478 0Zm-2.379 17.48a.286.286 0 0 1-.113.115.312.312 0 0 1-.307 0 .308.308 0 1 1 .42-.115Zm.69-5.444c0 5.265-4.265 9.535-9.53 9.536a9.494 9.494 0 0 1-6.4-2.466 9.493 9.493 0 0 1-6.39 2.463c-5.262 0-9.532-4.27-9.532-9.532 0-5.242 4.237-9.5 9.471-9.534h.061c2.459 0 4.7.933 6.392 2.463a9.498 9.498 0 0 1 6.393-2.465c5.266-.002 9.534 4.266 9.536 9.53-.002.002-.002.003-.002.005Z"/><path fill="#545472" d="M17.884 18.064c.302.37.622.722.975 1.042l.024-.02v-.001h.001a9.42 9.42 0 0 0 .968-1.02h-1.968Zm1.298-5.232s.134-.658.134-.926c0-.669-.333-1.484-1.447-1.484-1.02 0-1.776 1.1-1.776 2.343 0 1.434.946 1.775 1.753 1.775.744 0 1.072-.167 1.072-.167l.179-.978s-.567.25-1.078.25c-1.09 0-.9-.813-.9-.813h2.063Zm-1.31-1.5c.573 0 .467.645.467.696h-1.127c0-.067.107-.695.66-.695Zm6.07-.775c.517 0 .931.29.931.29l.166-1.075s-.614-.249-1.143-.249c-1.171 0-2.31 1.017-2.31 2.926 0 1.266.614 2.102 1.826 2.102.341 0 .887-.139.887-.139l.182-1.107s-.497.249-.84.249c-.72 0-1.009-.55-1.009-1.14 0-1.199.62-1.857 1.31-1.857Zm-7.331 5.504c.165.355.357.692.563 1.021h3.383a9.53 9.53 0 0 0 .555-1.02h-4.5Zm4.956-5.573c-.454 0-.791.62-.791.62l.091-.57h-.945l-.633 3.934h1.041c.296-1.68.351-3.044 1.055-2.795.124-.65.243-.902.378-1.177 0 0-.063-.013-.196-.012Z"/></svg>