<svg xmlns="http://www.w3.org/2000/svg" width="38" height="24" fill="none" viewBox="0 0 38 24"><path fill="#545472" fill-rule="evenodd" d="M.434 1a1 1 0 0 1 1-1h35a1 1 0 0 1 1 1v22a1 1 0 0 1-1 1h-35a1 1 0 0 1-1-1V1Zm27.104 16a.917.917 0 0 1-.313-.053.89.89 0 0 1-.264-.155.817.817 0 0 1-.179-.236.676.676 0 0 1-.065-.296.676.676 0 0 1 .244-.53.808.808 0 0 1 .264-.154.871.871 0 0 1 .313-.056c.07 0 .134.008.19.025a.757.757 0 0 1 .267.117V15h.44v1.984h-.325l-.076-.142a.864.864 0 0 1-.29.136.882.882 0 0 1-.206.022Zm.496-.74a.357.357 0 0 0-.126-.287.466.466 0 0 0-.313-.107.466.466 0 0 0-.313.107.357.357 0 0 0-.126.287c0 .12.042.215.126.287a.467.467 0 0 0 .313.107.466.466 0 0 0 .313-.107.357.357 0 0 0 .126-.287Zm-11.562-1.071h.382v.346h.381v.331h-.381v.599a.19.19 0 0 0 .065.15.29.29 0 0 0 .183.054h.05a.868.868 0 0 0 .034-.006.17.17 0 0 0 .03-.01v.316a.635.635 0 0 1-.21.032.8.8 0 0 1-.24-.036.576.576 0 0 1-.187-.107.532.532 0 0 1-.122-.163.522.522 0 0 1-.042-.215v-.614h-.267v-.3h.114c.14 0 .21-.057.21-.172v-.205Zm-6.217.33a.852.852 0 0 1 .385.095.396.396 0 0 1 .11.095.687.687 0 0 1 .142-.095.998.998 0 0 1 .164-.063.666.666 0 0 1 .21-.031c.19 0 .343.05.458.15.114.102.171.25.171.448v.866h-.438v-.834a.26.26 0 0 0-.088-.208.287.287 0 0 0-.199-.076.3.3 0 0 0-.202.076.265.265 0 0 0-.084.208v.834h-.439v-.834a.26.26 0 0 0-.087-.208.287.287 0 0 0-.199-.076.3.3 0 0 0-.202.076.266.266 0 0 0-.084.208v.834h-.439v-1.449h.325l.076.142a.712.712 0 0 1 .248-.132.546.546 0 0 1 .172-.025Zm2.957 0c.099 0 .19.015.274.045a.657.657 0 0 1 .218.116.524.524 0 0 1 .195.407v.897h-.325l-.076-.142a.864.864 0 0 1-.29.136.882.882 0 0 1-.206.022c-.19 0-.337-.038-.439-.113a.357.357 0 0 1-.152-.296c0-.072.016-.137.05-.196a.416.416 0 0 1 .175-.154c.081-.044.188-.078.32-.1.135-.026.303-.039.504-.039a.227.227 0 0 0-.08-.186.303.303 0 0 0-.206-.066.334.334 0 0 0-.142.026.351.351 0 0 0-.08.053.172.172 0 0 0-.046.079h-.438a.51.51 0 0 1 .068-.19.556.556 0 0 1 .153-.153.77.77 0 0 1 .225-.104.994.994 0 0 1 .298-.041Zm-.134 1.197a.429.429 0 0 0 .275-.081.265.265 0 0 0 .107-.218v-.063c-.13 0-.234.006-.313.016a.698.698 0 0 0-.187.041c-.043.017-.073.038-.088.063a.16.16 0 0 0-.023.085c0 .04.022.077.065.11a.272.272 0 0 0 .164.047Zm1.819-.066a.203.203 0 0 1-.084-.122h-.42a.485.485 0 0 0 .202.343c.12.086.294.129.523.129a.95.95 0 0 0 .267-.035.718.718 0 0 0 .206-.097c.056-.04.1-.086.13-.139a.344.344 0 0 0 .046-.17.305.305 0 0 0-.069-.208.489.489 0 0 0-.164-.132.884.884 0 0 0-.218-.076 9.07 9.07 0 0 0-.213-.05 1.261 1.261 0 0 1-.168-.054c-.043-.019-.065-.045-.065-.078 0-.04.018-.074.054-.101a.264.264 0 0 1 .156-.041c.066 0 .12.016.164.047.046.032.074.063.084.095h.42a.477.477 0 0 0-.203-.315c-.111-.084-.273-.126-.484-.126a.826.826 0 0 0-.458.132.435.435 0 0 0-.13.142.35.35 0 0 0-.042.167.31.31 0 0 0 .065.204.58.58 0 0 0 .168.126.992.992 0 0 0 .214.073c.079.017.151.033.217.05.066.015.121.032.164.05.046.02.069.046.069.08 0 .04-.023.076-.069.11a.3.3 0 0 1-.18.047.303.303 0 0 1-.182-.05Zm4.311.057a.6.6 0 0 0 .107-.164h-.458a.322.322 0 0 1-.076.057.557.557 0 0 1-.248.053.451.451 0 0 1-.271-.072.333.333 0 0 1-.13-.18h1.221l.005-.027.003-.02.007-.044a.652.652 0 0 0-.065-.35.692.692 0 0 0-.179-.236.831.831 0 0 0-.267-.15.973.973 0 0 0-.324-.054.962.962 0 0 0-.619.217.812.812 0 0 0-.19.236.632.632 0 0 0 0 .576.828.828 0 0 0 .19.234 1 1 0 0 0 .28.16 1.01 1.01 0 0 0 .613.016.968.968 0 0 0 .23-.104.751.751 0 0 0 .171-.148Zm-.958-.759a.462.462 0 0 1 .283-.082c.114 0 .207.027.278.082a.356.356 0 0 1 .141.202h-.84a.364.364 0 0 1 .138-.202Zm2.457-.428a.398.398 0 0 1 .095.01l.038.005v.378l-.02-.003-.022-.003a.871.871 0 0 0-.11-.01.39.39 0 0 0-.264.089.284.284 0 0 0-.099.227v.771h-.439v-1.449h.325l.076.158a.511.511 0 0 1 .11-.085.563.563 0 0 1 .31-.088Zm2.092 1.137a.67.67 0 0 0 .103-.208h-.439a.327.327 0 0 1-.084.104.45.45 0 0 1-.298.1.467.467 0 0 1-.312-.106.357.357 0 0 1-.126-.287c0-.12.042-.215.126-.287a.466.466 0 0 1 .313-.107.494.494 0 0 1 .298.104.34.34 0 0 1 .083.1h.439a.759.759 0 0 0-.282-.381.841.841 0 0 0-.245-.122.963.963 0 0 0-.912.17.81.81 0 0 0-.19.236.632.632 0 0 0 0 .576.825.825 0 0 0 .19.234c.082.067.175.12.279.16a1.01 1.01 0 0 0 .633.013.846.846 0 0 0 .424-.3Zm1.324-1.137c.1 0 .19.014.275.044a.656.656 0 0 1 .217.116.524.524 0 0 1 .195.407v.897h-.325l-.076-.142a.865.865 0 0 1-.29.136.883.883 0 0 1-.206.022c-.19 0-.337-.038-.439-.113a.358.358 0 0 1-.152-.296c0-.072.016-.137.05-.196a.416.416 0 0 1 .175-.154c.081-.044.188-.078.32-.1.135-.026.303-.039.504-.039a.228.228 0 0 0-.08-.186.304.304 0 0 0-.206-.066.334.334 0 0 0-.142.026.353.353 0 0 0-.08.053.173.173 0 0 0-.045.079h-.44a.51.51 0 0 1 .07-.19.558.558 0 0 1 .152-.153.77.77 0 0 1 .225-.104.999.999 0 0 1 .298-.041Zm-.134 1.197a.43.43 0 0 0 .275-.082.266.266 0 0 0 .107-.218v-.063c-.13 0-.234.006-.313.016a.7.7 0 0 0-.187.041.177.177 0 0 0-.088.063.16.16 0 0 0-.023.085c0 .04.022.077.065.11a.271.271 0 0 0 .164.047Zm2.284-1.194a.535.535 0 0 0-.233.025.562.562 0 0 0-.13.06.511.511 0 0 0-.11.085l-.076-.158H25.4v1.45h.438v-.772c0-.095.034-.17.1-.227a.39.39 0 0 1 .263-.088.526.526 0 0 1 .11.01l.043.005v-.378l-.039-.006a1.556 1.556 0 0 0-.042-.006Zm-10.041 2.892a.961.961 0 0 1 .981.112.79.79 0 0 1 .192.217c.051.083.09.17.116.264h.424a1.585 1.585 0 0 0-.184-.394 1.365 1.365 0 0 0-.669-.536A1.326 1.326 0 0 0 16.63 18a1.4 1.4 0 0 0-.555.114 1.467 1.467 0 0 0-.465.319 1.583 1.583 0 0 0-.322.479c-.08.183-.121.379-.121.588 0 .212.04.41.12.59.082.183.189.341.323.477.134.136.29.242.465.319a1.4 1.4 0 0 0 .555.114c.171 0 .33-.025.475-.076.147-.052.277-.123.39-.215.115-.093.212-.2.291-.323.08-.122.14-.253.184-.394h-.421a1.098 1.098 0 0 1-.119.266.802.802 0 0 1-.191.215.942.942 0 0 1-.609.2.961.961 0 0 1-.397-.087 1.1 1.1 0 0 1-.582-.616 1.24 1.24 0 0 1-.087-.47 1.207 1.207 0 0 1 .325-.84c.1-.106.215-.188.344-.245Zm-6.4 2.562h-.398v-2.954h.398v2.954Zm1.91-.327c.142 0 .28-.03.412-.087.133-.058.249-.139.349-.24a1.158 1.158 0 0 0 .332-.822c0-.163-.03-.314-.09-.454a1.14 1.14 0 0 0-.59-.61 1.017 1.017 0 0 0-.413-.087h-.47v2.3h.47Zm1.49-1.15a1.448 1.448 0 0 1-.438 1.056 1.5 1.5 0 0 1-1.052.421h-.867v-2.954h.867a1.5 1.5 0 0 1 1.052.421c.136.132.242.288.32.47.079.181.118.377.118.586Zm6.498-.657c.12 0 .23.023.334.069a.88.88 0 0 1 .465.476c.047.111.07.235.07.37v1.22h-.373v-1.22a.6.6 0 0 0-.046-.237.57.57 0 0 0-.119-.188.489.489 0 0 0-.171-.12.54.54 0 0 0-.209-.04.598.598 0 0 0-.431.16.563.563 0 0 0-.165.426v1.218h-.373v-2.954h.373v1.101a.747.747 0 0 1 .165-.14 1.29 1.29 0 0 1 .2-.096.773.773 0 0 1 .28-.045Zm3.408 1.793c.056-.073.103-.147.14-.222h-.397a.787.787 0 0 1-.075.084.477.477 0 0 1-.112.08 1.094 1.094 0 0 1-.15.067.61.61 0 0 1-.42-.02.733.733 0 0 1-.2-.131.738.738 0 0 1-.143-.188.582.582 0 0 1-.066-.22h1.587a5.524 5.524 0 0 0 .02-.107 1.13 1.13 0 0 0-.075-.513.984.984 0 0 0-.529-.548.976.976 0 0 0-.383-.075 1.006 1.006 0 0 0-.717.305 1.075 1.075 0 0 0-.3.773 1.083 1.083 0 0 0 .303.779 1.038 1.038 0 0 0 .739.3.998.998 0 0 0 .579-.176.946.946 0 0 0 .199-.188Zm-1.02-1.418a.537.537 0 0 1 .605.12c.112.108.18.256.206.444h-1.214a.74.74 0 0 1 .216-.437.674.674 0 0 1 .186-.127Zm2.845-.046a.664.664 0 0 0-.468.206.737.737 0 0 0-.15.236.843.843 0 0 0-.053.307.88.88 0 0 0 .053.31c.038.091.088.17.15.235a.636.636 0 0 0 .468.206.578.578 0 0 0 .378-.135.707.707 0 0 0 .218-.311h.371a1.079 1.079 0 0 1-.123.302.979.979 0 0 1-.844.472 1.036 1.036 0 0 1-.739-.3 1.081 1.081 0 0 1-.303-.779 1.054 1.054 0 0 1 .303-.774 1.038 1.038 0 0 1 1.083-.243.98.98 0 0 1 .5.412c.056.094.097.194.123.3h-.37a.671.671 0 0 0-.39-.408.576.576 0 0 0-.207-.035Zm1.71 1.805h.373v-1.101l.942 1.101h.446l-.967-1.127.844-.984h-.422l-.843 1.01v-1.853h-.373v2.954Zm-8.502-8.283a6 6 0 1 1 .263-9.167 6 6 0 1 1 .263 9.167 5.98 5.98 0 0 0 1.737-4.222 5.985 5.985 0 0 0-2-4.472 5.985 5.985 0 0 0-2 4.472 5.98 5.98 0 0 0 1.737 4.222Z" clip-rule="evenodd"/></svg>