<svg xmlns="http://www.w3.org/2000/svg" width="38" height="25" fill="none" viewBox="0 0 38 25"><path fill="#545472" d="M8.116 9.814c-.15-.099-.375-.149-.67-.149l-.251.001a.389.389 0 0 0-.366.292l-.233 1c-.036.162.067.294.235.294h.188c.417 0 .74-.085.973-.256.232-.17.351-.41.346-.723.001-.207-.073-.361-.222-.46Zm4.111 2.304c-.046.001-.393.04-.57.062a2.911 2.911 0 0 0-.507.115l-.326.222a.58.58 0 0 0-.113.376l.15.288c.1.056.248.084.438.084.125 0 .26-.03.402-.088l.303-.156.12-.16c.047-.185.145-.597.156-.649l-.053-.094Z"/><path fill="#545472" d="M36.333 0H1.101a.956.956 0 0 0-.956.956v22.16c0 .528.427.956.956.956h35.232a.956.956 0 0 0 .956-.956V.956A.956.956 0 0 0 36.333 0ZM9.013 11.678c-.524.385-1.252.577-2.194.578h-.22a.394.394 0 0 0-.369.292l-.264 1.143a.395.395 0 0 1-.37.293h-.77c-.166 0-.27-.134-.231-.293l1.081-4.71a.404.404 0 0 1 .37-.295h1.608c.347.003.648.024.908.071.257.05.48.13.67.246.181.115.328.268.42.454.103.185.148.417.148.693 0 .632-.26 1.142-.787 1.527Zm4.776-.602-.03.198-.56 2.428a.398.398 0 0 1-.332.288l-.01.004h-.716l-.002-.002c-.147-.014-.238-.138-.206-.288v-.002l.001-.004.029-.124-.004-.005-.29.192-.316.176-.372.128a2.15 2.15 0 0 1-.483.044c-.329 0-.603-.09-.811-.276a.95.95 0 0 1-.313-.73c0-.316.073-.583.22-.805a1.51 1.51 0 0 1 .662-.523c.273-.124.6-.216.976-.268.382-.055.698-.095 1.135-.123l.11-.068.015-.109a.355.355 0 0 0-.232-.35c-.157-.065-.392-.098-.7-.098-.21-.003-.472.04-.722.096-.26.06-.332.098-.46.136-.06.02-.202.03-.149-.216l.094-.388s.046-.293.34-.356c.14-.032.163-.038.394-.073a6.11 6.11 0 0 1 .931-.073c.627 0 1.086.082 1.376.246.291.163.44.418.438.76l-.013.185Zm1.237 4.784-.797.002c-.166 0-.22-.132-.12-.294l.683-1.189s.054-.068.005-.456a318.17 318.17 0 0 0-.628-3.681c-.038-.161.064-.294.23-.294h.69c.21 0 .38.138.419.301l.343 2.067.128.001c.107-.19 1.21-2.081 1.21-2.081.104-.16.317-.294.483-.294 0 0 .741.002.924 0 .273-.004-.022.44-.022.44l-3.067 5.186c-.098.162-.317.292-.481.292Zm7.969-4.162c-.526.383-1.258.577-2.2.577h-.22a.397.397 0 0 0-.369.292l-.26 1.145a.398.398 0 0 1-.37.289l-.771.002c-.164 0-.272-.132-.232-.292l1.082-4.714a.4.4 0 0 1 .368-.292l1.61-.002c.345.002.649.026.904.072a1.9 1.9 0 0 1 .67.245c.183.118.328.268.424.455.098.184.146.417.148.693 0 .63-.264 1.14-.784 1.53Zm4.773-.618-.028.199-.563 2.426a.397.397 0 0 1-.328.29l-.011.003h-.716v-.004a.224.224 0 0 1-.206-.288l-.001-.002.003-.002.026-.124-.005-.006-.288.194-.318.176-.371.125c-.115.03-.277.043-.482.046-.33 0-.602-.094-.81-.278a.943.943 0 0 1-.316-.731c0-.314.073-.582.22-.803.151-.221.372-.393.662-.523a3.59 3.59 0 0 1 .978-.268c.38-.056.696-.096 1.137-.123l.11-.07.012-.108a.352.352 0 0 0-.233-.349c-.156-.066-.392-.1-.698-.1-.21 0-.475.041-.723.097-.26.06-.33.098-.457.136-.065.02-.203.03-.15-.216l.093-.387s.044-.294.338-.357c.143-.03.166-.038.396-.071.31-.05.622-.075.931-.075.625 0 1.083.083 1.376.247.293.163.44.417.44.76l-.018.186Zm2.466-2.044-1.031 4.67-.036.056c-.061.131-.192.238-.333.238h-.716l-.013-.017c-.136-.02-.225-.13-.192-.274l-.002-.003.031-.135.964-4.381.035-.153.038-.06c.063-.129.19-.233.332-.233h.688c.168 0 .269.13.233.291l.002.001Zm1.367-.505h-.258v.343l.002.092.018.062.04.04.08.012.064-.01.048-.014h.006v.112l-.077.016-.073.006-.175-.063-.06-.197v-.4h-.087v-.106h.087V8.21h.127v.214h.258v.106Zm1.246.157v.485h-.124v-.427l-.008-.092-.017-.072-.043-.043-.084-.015-.104.027-.107.068.002.036.001.04v.48h-.125v-.428l-.005-.093-.018-.072-.042-.042-.085-.015-.103.025-.105.065v.56h-.123v-.75h.123v.084l.12-.076.124-.028.13.03.08.09.138-.092.135-.028.182.074.06.21h-.002Z"/><path fill="#545472" d="M26.207 12.122c-.046-.001-.392.04-.566.062-.2.028-.37.067-.507.115a.781.781 0 0 0-.33.222.595.595 0 0 0-.11.376l.15.287c.097.058.243.085.439.085.123 0 .258-.03.4-.087l.3-.156.124-.16c.046-.187.146-.598.154-.65l-.054-.094Zm-4.115-2.291c-.152-.099-.373-.148-.668-.149l-.25.001a.394.394 0 0 0-.369.293l-.232 1c-.038.16.07.294.236.292H21c.416 0 .74-.085.972-.252.23-.172.347-.411.346-.726-.004-.205-.076-.36-.226-.459Z"/></svg>