<svg xmlns="http://www.w3.org/2000/svg" width="16" height="16" fill="none" viewBox="0 0 16 16"><path fill="#fff" d="M6.46 4.958a2.073 2.073 0 0 0-.433-2.295l-1.39-1.39A2.044 2.044 0 0 0 2.867.69a2.067 2.067 0 0 0-1.534 1.091A5.719 5.719 0 0 0 .85 5.905c.886 3.52 5.723 8.358 9.243 9.244.475.12.963.182 1.453.182.932 0 1.849-.23 2.671-.666a2.072 2.072 0 0 0 .509-3.301l-1.388-1.39a2.076 2.076 0 0 0-2.296-.435 3.24 3.24 0 0 0-.98.658c-.341.341-1.594-.153-2.85-1.408C5.955 7.535 5.462 6.281 5.8 5.94c.279-.283.503-.616.66-.981Zm-.193 4.775c1.529 1.528 3.585 2.558 4.733 1.408.17-.162.366-.291.582-.383a.733.733 0 0 1 .81.16l1.39 1.39a.725.725 0 0 1 .206.627.742.742 0 0 1-.394.551 4.346 4.346 0 0 1-3.177.37c-3.024-.763-7.51-5.249-8.272-8.276a4.349 4.349 0 0 1 .37-3.18.742.742 0 0 1 1.179-.185l1.39 1.39a.733.733 0 0 1 .16.809A1.933 1.933 0 0 1 4.86 5c-1.15 1.146-.12 3.2 1.407 4.733Zm7.347-2.018a4 4 0 0 0-5.33-5.329.667.667 0 1 1-.571-1.204 5.333 5.333 0 0 1 7.106 7.104.666.666 0 0 1-1.204-.572l-.001.001Zm-2.673-.771a1.333 1.333 0 0 0 0-1.885 1.365 1.365 0 0 0-1.885 0 .667.667 0 0 1-.943-.943 2.729 2.729 0 0 1 3.771 0 2.667 2.667 0 0 1 0 3.77.667.667 0 0 1-.943-.942Z"/></svg>