<svg xmlns="http://www.w3.org/2000/svg" width="256" height="256" viewBox="0 0 256 256"><path fill="#eae8ec" d="M0 0h256v256H0z"/><path fill="#c4c4c4" d="m71.807 114-13.133.055L76.19 142l17.518-27.945L80.575 114l-4.385 8.357L71.807 114zm-12.301 3.022v21.956l6.438-11.71-6.438-10.247zm33.387 0-6.436 10.245 6.436 11.712V117.02zm95.004.566c-3.635-.067-7.153 2.215-8.607 5.54-1.617 3.564-.882 8.122 1.996 10.833 2.674 2.725 7.08 3.496 10.523 1.846 3.172-1.435 5.404-4.718 5.507-8.207.232-3.676-1.868-7.377-5.175-9.014a9.337 9.337 0 0 0-4.244-.998zm-81.352.404-4.008 18.195h2.645l2.218-11.252 5.145 11.252h.697l5.078-11.254 2.278 11.254h2.668l-4.098-18.195h-.51l-5.77 13.188-5.83-13.188h-.513zm26.375 0-8.232 18.195h3.015l2.051-4.681h7l2.002 4.681h3.03l-8.223-18.195h-.643zm10.525 0v18.193h2.643V123.75l12.424 12.438h.72v-18.193h-2.644v12.396l-12.426-12.398h-.717zm25.678 0-8.23 18.195h3.013l2.051-4.681h7l2.002 4.681h3.031l-8.224-18.195h-.643zm18.773 2.319c2.915-.06 5.53 2.206 6.207 4.986.833 2.982-.54 6.464-3.318 7.904-2.5 1.394-5.887.706-7.684-1.511-2.415-2.716-2.17-7.324.564-9.735a6.212 6.212 0 0 1 4.231-1.644zm-54.631 2.732 2.475 5.994h-4.924l2.449-5.994zm36.203 0 2.477 5.994h-4.926l2.449-5.994z"/></svg>