<svg xmlns="http://www.w3.org/2000/svg" width="38" height="25" fill="none" viewBox="0 0 38 25"><path fill="#545472" d="M36.188 0H.956A.956.956 0 0 0 0 .956v22.16c0 .528.427.956.956.956H36.19a.956.956 0 0 0 .956-.956V.956A.956.956 0 0 0 36.188 0ZM2.877 7.274H6.84c.535.02.966.191 1.114.763l.863 4.146c-.847-2.169-2.889-3.973-5.974-4.72l.033-.189Zm4.797 9.458-2.29-7.824c1.646 1.054 3.048 2.725 3.542 3.889l.267.966 2.505-6.399h2.71L10.38 16.73l-2.706.002Zm8.725.006H13.84l1.598-9.383h2.559l-1.6 9.383Zm4.45.14c-1.147-.01-2.251-.238-2.85-.5l.36-2.1.33.15c.84.35 1.383.492 2.407.492.735 0 1.522-.288 1.53-.916.004-.411-.33-.705-1.326-1.165-.97-.449-2.256-1.201-2.24-2.549.014-1.823 1.795-3.096 4.322-3.096a6.6 6.6 0 0 1 2.29.394l-.344 2.034-.231-.108a4.719 4.719 0 0 0-1.914-.36c-1.001 0-1.465.418-1.465.808-.006.439.542.728 1.436 1.164 1.475.67 2.157 1.481 2.148 2.549-.02 1.946-1.765 3.204-4.454 3.204Zm11.08-.136s-.233-1.079-.31-1.406l-3.275-.004c-.1.253-.538 1.41-.538 1.41H25.12l3.797-8.599c.27-.61.726-.779 1.34-.779h1.975l2.07 9.377-2.373.001Z"/><path fill="#545472" d="m30.609 10.704-.172-.808c-.13.353-.355.92-.34.895l-1.02 2.623h2.124l-.592-2.71Z"/></svg>